<?xml version="1.0" standalone="no"?>
<!DOCTYPE svg PUBLIC "-//W3C//DTD SVG 1.1//EN" "http://www.w3.org/Graphics/SVG/1.1/DTD/svg11.dtd" >
<svg xmlns="http://www.w3.org/2000/svg">
<metadata></metadata>
<defs>
<font id="engravers_lh_bold_faceregular" horiz-adv-x="1366" >
<font-face units-per-em="2048" ascent="1638" descent="-410" />
<missing-glyph horiz-adv-x="627" />
<glyph horiz-adv-x="0" />
<glyph unicode="&#xd;" horiz-adv-x="682" />
<glyph unicode=" "  horiz-adv-x="627" />
<glyph unicode="&#x09;" horiz-adv-x="627" />
<glyph unicode="&#xa0;" horiz-adv-x="627" />
<glyph unicode="!" horiz-adv-x="684" d="M369 301l125 494q8 22 8 47q-2 73 -47 102q-50 25 -113 25t-109 -25q-51 -29 -51 -102q0 -25 8 -47l125 -494h54zM342 160q-92 -2 -127 -35q-35 -35 -33 -59q-2 -23 33 -54q35 -35 127 -37q94 2 129 37q31 31 31 54q0 24 -31 59q-35 33 -129 35v0z" />
<glyph unicode="&#x22;" horiz-adv-x="1024" d="M745 969q-55 0 -81 -27q-27 -31 -27 -113q0 -61 14 -159q10 -99 17 -162q6 -47 22 -84q17 -39 55 -39q43 0 60 39q16 37 18 84q8 63 21 162q10 98 10 159q0 82 -25 113q-26 27 -84 27v0zM279 969q-56 0 -82 -27q-27 -31 -27 -113q0 -61 14 -159q11 -99 17 -162 q6 -47 22 -84q17 -39 56 -39q43 0 59 39q16 37 18 84q9 63 21 162q10 98 10 159q0 82 -25 113q-26 27 -83 27v0z" />
<glyph unicode="#" horiz-adv-x="1253" d="M737 389h-260l39 191h260zM246 0h149l62 291h260l-62 -291h150l61 291h205v98h-184l39 191h204v98h-184l62 291h-150l-61 -291h-260l61 291h-150l-61 -291h-205v-98h185l-39 -191h-205v-98h184z" />
<glyph unicode="$" horiz-adv-x="1253" d="M594 8q-74 4 -119 17q-45 12 -74 28q-24 17 -32 33q-13 14 -13 20q0 23 15 43q10 19 12 52q2 22 -14 63q-9 19 -31 31q-21 10 -62 10q-40 0 -69 -24q-35 -29 -35 -72q0 -60 45 -103q41 -43 107 -73q137 -58 270 -58v-170h80v170q401 41 407 314q0 86 -35 149 q-36 62 -96 101q-125 81 -276 100v297q43 0 125 -10q39 -7 63 -23q23 -14 25 -43q0 -10 -8 -29q-9 -18 -9 -45q0 -36 15 -57q12 -25 28 -33q37 -16 54 -14q47 0 71 29q23 26 23 61q-2 90 -113 141q-108 49 -274 56v123h-80v-123q-176 0 -295 -78q-123 -78 -125 -223 q0 -86 41 -138q39 -55 100 -88q64 -32 138 -51q71 -18 141 -33v-350zM594 647q-107 17 -184 45q-37 17 -60 41q-24 25 -24 62q0 43 32 71q29 27 74 41q45 17 90 23q43 6 72 6v-289zM674 344v0q190 -25 256 -49q63 -27 61 -92q0 -51 -33 -88q-34 -37 -86 -60 q-110 -45 -198 -47v336z" />
<glyph unicode="%" horiz-adv-x="1517" d="M1104 0q-60 0 -72 66q-16 61 -16 157q0 101 16 160q12 59 72 61q65 -2 78 -61q10 -59 10 -160q0 -96 -10 -157q-13 -66 -78 -66v0zM410 -25h90l610 994h-90zM414 500q-60 0 -72 65q-16 62 -16 158q0 100 16 160q12 59 72 61q65 -2 77 -61q11 -60 11 -160q0 -96 -11 -158 q-12 -65 -77 -65v0zM1104 -25q108 2 178 72q70 68 72 176q-2 109 -72 178q-70 66 -178 68q-107 -2 -176 -68q-72 -69 -74 -178q2 -108 74 -176q69 -70 176 -72v0zM414 475q108 0 178 72q69 67 72 176q-3 108 -72 178q-70 66 -178 68q-107 -2 -176 -68q-72 -70 -74 -178 q2 -109 74 -176q69 -72 176 -72v0z" />
<glyph unicode="&#x26;" horiz-adv-x="1479" d="M514 590q127 -238 270 -449q-24 -24 -100 -65q-35 -19 -72 -31q-41 -14 -75 -14q-56 0 -86 28q-31 25 -43 39q-70 97 -93 176q-22 78 -20 101q0 67 51 123q51 53 168 92v0zM643 817q2 64 43 90q39 23 86 23q68 -2 94 -33q27 -33 27 -61q0 -50 -57 -86q-58 -37 -146 -58 q-14 29 -29 64q-18 32 -18 61v0zM1106 479q-6 -31 -33 -63q-24 -31 -125 -125v0q-121 174 -166 243q-47 68 -71 121q219 58 221 178q-2 76 -64 107q-61 29 -145 29q-129 -2 -195 -56q-69 -57 -69 -141q0 -55 39 -149q-129 -41 -260 -127q-60 -43 -99 -103q-41 -61 -41 -137 q-2 -4 6 -47q7 -41 35 -96q29 -54 99 -93q67 -43 186 -45q135 2 225 45q88 41 156 93v0q43 -56 90 -113h485v33h-92q-55 0 -98 22q-45 21 -82 51q-76 70 -135 156q149 154 334 320h69v32h-428v-32h92z" />
<glyph unicode="'" horiz-adv-x="627" d="M313 969q-55 0 -82 -27q-26 -31 -26 -113q0 -61 14 -159q10 -99 17 -162q6 -47 22 -84q16 -39 55 -39q43 0 60 39q16 37 18 84q8 63 21 162q10 98 10 159q0 82 -25 113q-26 27 -84 27v0z" />
<glyph unicode="(" horiz-adv-x="682" d="M616 -211q-79 35 -125 100q-49 66 -73 148q-45 172 -41 330q-4 159 41 331q24 82 73 148q46 63 125 98v39q-45 -6 -122 -45q-80 -39 -162 -117q-82 -74 -140 -186q-59 -115 -61 -268q2 -154 61 -265q58 -112 140 -188q82 -74 162 -113q77 -43 122 -51v39z" />
<glyph unicode=")" horiz-adv-x="682" d="M66 -250q45 8 124 51q80 39 162 113q84 76 142 188q55 111 57 265q-2 153 -57 268q-58 112 -142 186q-82 78 -162 117q-79 39 -124 45v-39q81 -35 131 -98q45 -66 69 -148q41 -172 39 -331q2 -158 -39 -330q-24 -82 -69 -148q-50 -65 -131 -100v-39z" />
<glyph unicode="*" horiz-adv-x="1024" d="M512 686l-92 219q-15 39 -29 53q-14 11 -39 11q-41 0 -53 -17q-14 -16 -12 -37q0 -12 20 -34q17 -23 33 -45l133 -166q-63 8 -141 22q-80 15 -105 15q-20 0 -45 -9q-26 -10 -26 -53q0 -29 26 -41q25 -14 45 -14q25 0 103 16q75 14 143 25l-133 -166q-16 -21 -33 -43 q-20 -23 -20 -37q-2 -18 12 -35q12 -18 53 -18q25 0 39 14q14 10 29 49l92 219v0l88 -231q8 -18 23 -33q14 -18 41 -18q47 0 57 22q6 21 6 29q4 10 -43 78l-133 170q69 -11 147 -25q37 -6 66 -10q26 -6 33 -6q24 0 47 14q22 12 24 41q-2 43 -24 53q-23 9 -47 9 q-21 0 -101 -15q-80 -14 -145 -22l133 170q47 67 43 77q0 11 -6 31q-10 19 -57 21q-27 0 -41 -15q-15 -16 -23 -37l-88 -231v0z" />
<glyph unicode="+" horiz-adv-x="979" d="M422 461h-326v-135h326v-326h135v326h326v135h-326v325h-135v-325z" />
<glyph unicode="," horiz-adv-x="627" d="M115 -289v0q139 37 250 127q112 90 116 246q0 88 -43 149q-43 60 -125 62q-65 0 -110 -45q-49 -45 -49 -115q0 -74 47 -115q45 -43 110 -45q21 0 19 -34q0 -31 -23 -58q-26 -26 -61 -49q-35 -20 -70 -37q-37 -18 -61 -28v-58z" />
<glyph unicode="-" horiz-adv-x="682" d="M102 303h478v205h-478v-205z" />
<glyph unicode="." horiz-adv-x="627" d="M154 135q0 -65 49 -110q45 -48 110 -50q70 2 115 50q45 45 45 110q0 70 -45 115t-115 45q-65 0 -110 -45q-49 -45 -49 -115v0z" />
<glyph unicode="/" horiz-adv-x="569" d="M-53 -25h135l541 994h-136z" />
<glyph unicode="0" horiz-adv-x="1253" d="M1130 473q-4 203 -149 348q-145 144 -354 148q-222 -4 -361 -148q-141 -141 -143 -348q0 -188 137 -338q135 -153 367 -160q198 2 348 140q151 131 155 358v0zM833 297q3 -70 -24 -172q-16 -47 -59 -80q-46 -37 -123 -37q-76 0 -117 37q-43 33 -64 80q-16 49 -22 96 q-4 47 -4 76v350q0 33 4 80q6 49 22 96q21 47 64 80q41 33 117 33q77 0 123 -33q43 -33 59 -80q18 -47 22 -96q2 -47 2 -80v-350z" />
<glyph unicode="1" horiz-adv-x="1253" d="M201 0h872v33h-201l-108 84v852h-37q-57 -25 -147 -33q-91 -12 -164 -12h-201v-33h201l92 -84v-690l-80 -84h-227v-33z" />
<glyph unicode="2" horiz-adv-x="1253" d="M1065 317q-14 -92 -55 -131t-101 -39q-78 2 -174 54q-49 18 -108 35q-58 14 -129 14q-90 -2 -140 -25q-49 -22 -57 -24q-16 -2 -16 18q0 41 34 68q31 26 66 47q68 39 164 63q96 25 205 43q53 8 108 27q53 16 96 43q47 31 74 76t27 112q-2 135 -129 203t-334 68 q-51 0 -117 -9q-69 -12 -135 -38q-65 -25 -106 -70q-48 -45 -48 -115q0 -59 39 -90q35 -35 95 -35q59 0 98 35q35 35 35 94q0 33 -13 58q-16 20 -34 32q-48 23 -50 37q0 19 25 31q23 12 57 20q72 17 117 17q123 -2 170 -60q41 -59 41 -151q-2 -117 -94 -184 q-90 -68 -209 -123q-119 -56 -209 -142q-43 -43 -70 -100q-28 -61 -28 -141v-60h45v70q0 21 14 43q14 21 55 23q43 0 95 -21q51 -18 112 -45q62 -25 131 -45q68 -23 144 -25q151 2 241 101q88 96 97 241h-29z" />
<glyph unicode="3" horiz-adv-x="1253" d="M389 453q229 -2 313 -37q82 -37 80 -170q0 -29 -4 -68q-4 -41 -28 -80q-23 -37 -78 -63q-54 -27 -154 -27q-22 -2 -84 8q-29 7 -47 17q-22 8 -22 26q0 19 16 41q14 19 14 66q-2 80 -43 108q-43 27 -84 27q-59 0 -94 -35q-35 -39 -35 -98q0 -70 53 -109q50 -39 115 -57 q68 -18 129 -20q62 -7 88 -7q68 0 162 5q92 6 182 28q92 25 152 78q57 55 59 152q0 49 -18 88q-23 36 -53 63q-70 53 -138 68q-65 16 -59 30q2 15 39 27q88 39 137 82q51 41 51 119q-2 90 -57 141q-57 51 -141 76q-82 24 -158 33q-78 4 -121 4q-104 0 -174 -15 q-72 -16 -115 -41q-82 -55 -80 -129q0 -53 35 -88q33 -39 86 -39q17 -2 70 17q22 12 39 35q16 20 16 57q0 29 -6 43q-6 16 -16 24q-11 9 -17 21q-8 10 -8 25q0 24 45 40q43 17 121 17q113 0 154 -60q39 -59 39 -165q0 -146 -66 -183q-68 -39 -236 -37h-59v-38z" />
<glyph unicode="4" horiz-adv-x="1253" d="M199 414l378 419q13 13 31 13q12 -2 15 -17v-448h-424v33zM143 319h480v-196l-82 -90h-170v-33h706v33h-119l-79 90v196h194v62h-194v588h-236l-500 -551v-99z" />
<glyph unicode="5" horiz-adv-x="1253" d="M240 506q71 28 135 45q63 16 141 16q94 0 152 -22q57 -23 84 -64q28 -41 36 -88q7 -49 7 -102q0 -35 -5 -82q-4 -47 -28 -94q-23 -45 -78 -74q-53 -33 -154 -33q-98 0 -137 23q-41 20 -39 35q2 26 29 45q10 12 18 26q7 15 7 39q-3 55 -37 90q-35 33 -92 33q-29 0 -70 -25 q-45 -26 -47 -98q0 -67 43 -106q41 -39 104 -60q64 -20 129 -26q68 -9 115 -9q70 0 162 11q92 8 176 37q86 28 143 92q55 59 58 166q-3 165 -134 249q-129 82 -333 82q-82 0 -144 -6q-59 -10 -102 -22q-39 -9 -64 -19q-26 -10 -41 -10q-18 -2 -20 18q0 15 10 74q6 57 10 105 q25 -9 70 -13q25 -2 64 -2q38 -4 96 -4q147 0 252 29q104 26 168 61q63 39 94 70q28 31 28 41q-2 35 -36 35q-50 -2 -156 -13q-102 -12 -207 -12q-104 0 -217 12q-53 6 -90 11q-37 2 -51 2q-35 -2 -41 -35l-37 -414z" />
<glyph unicode="6" horiz-adv-x="1253" d="M436 532q0 84 8 158q7 72 33 127q27 57 82 88t152 31q84 2 86 -27q-2 -26 -17 -39q-16 -14 -18 -59q0 -66 45 -92q39 -29 94 -29q39 -2 86 17q23 12 37 32q12 19 12 51q0 50 -33 84q-32 35 -86 56q-51 22 -108 30q-59 9 -111 9q-231 -2 -391 -138q-164 -135 -168 -372 q0 -37 17 -113q14 -76 65 -162q51 -84 154 -145q100 -62 272 -64q182 0 322 86q141 86 145 258q0 115 -111 195q-110 82 -321 84q-98 -2 -156 -25q-59 -26 -90 -49v8zM618 8q-63 0 -102 27q-39 22 -57 61q-19 41 -25 94q-2 25 -2 54q-4 24 -4 51q0 113 8 151q6 39 25 54 q45 59 188 65q68 0 107 -22q39 -23 57 -62q18 -37 25 -80q2 -45 2 -92q0 -178 -50 -241q-51 -62 -172 -60v0z" />
<glyph unicode="7" horiz-adv-x="1253" d="M229 494h33q6 129 35 182q27 51 94 51q23 -2 141 -25q54 -10 101 -16q22 -4 39 -4q16 -4 24 -4q58 0 94 8q35 6 56 12q37 17 51 19q14 0 20 -6q2 -9 2 -19q-2 -45 -83 -119q-82 -75 -175 -147q-182 -135 -182 -281q2 -90 51 -129q47 -41 90 -41q56 2 89 21q30 16 45 41 q26 53 26 106q15 138 37 219q12 43 29 78q16 37 37 74q100 172 137 260q33 86 33 160q0 12 -7 24q-6 11 -20 11q-12 0 -18 -13q-7 -12 -9 -32q-4 -43 -16 -68q-12 -29 -45 -29q-21 0 -49 21q-31 16 -68 39q-37 22 -86 41q-51 16 -119 16q-75 0 -127 -16q-51 -19 -86 -45 q-32 -25 -53 -45q-24 -21 -43 -21q-16 -2 -14 37q0 57 6 115h-33z" />
<glyph unicode="8" horiz-adv-x="1253" d="M1096 754q-2 61 -43 104q-43 41 -113 66q-147 45 -311 45q-90 2 -262 -43q-37 -13 -72 -31q-33 -21 -62 -49q-59 -56 -59 -148q2 -71 55 -131q52 -59 121 -98q-59 -12 -137 -57q-37 -23 -64 -60q-26 -39 -26 -94q2 -121 149 -201q146 -80 387 -82q220 0 344 78 q125 78 127 223q0 62 -18 107q-20 47 -55 80q-72 69 -176 106v4q213 64 215 181v0zM399 422q45 -2 150 -33q104 -31 162 -51q75 -21 151 -59q35 -21 57 -50q21 -30 21 -73q-4 -90 -94 -119q-21 -6 -43 -10q-25 -7 -49 -11q-50 -8 -101 -8q-69 0 -135 10q-67 9 -123 33 q-53 27 -86 76q-35 49 -35 129q0 72 41 119q39 45 84 47v0zM623 936q81 0 196 -29q53 -18 88 -49q35 -33 37 -82q-2 -55 -49 -108q-19 -25 -39 -41q-20 -19 -31 -19q-20 2 -147 41q-129 33 -205 64q-18 8 -51 34q-35 25 -37 68q0 35 31 59q26 23 63 37q82 25 144 25v0z" />
<glyph unicode="9" horiz-adv-x="1253" d="M817 412q0 -80 -4 -152q-6 -74 -33 -131q-26 -55 -82 -86q-57 -35 -155 -35q-39 0 -62 6q-24 6 -24 21q2 28 18 43q14 12 16 55q-2 68 -40 96q-41 25 -99 25q-35 0 -82 -14q-51 -19 -53 -86q0 -50 37 -82q33 -33 84 -56q53 -20 110 -30q58 -11 107 -11q231 2 393 140 q162 135 166 370q0 37 -12 115q-17 76 -68 162t-151 145q-103 60 -277 62q-182 0 -319 -86q-144 -86 -148 -258q0 -111 113 -193q110 -84 319 -86q54 0 93 10q36 6 67 17q59 24 86 47v-8zM635 936q67 0 106 -23q39 -24 58 -65q10 -19 16 -41q6 -25 8 -49q2 -54 2 -109 q0 -110 -6 -149q-8 -39 -26 -56q-46 -59 -189 -65q-63 0 -102 26q-39 23 -58 60q-18 37 -24 84q-6 43 -6 86q-2 180 49 244q51 59 172 57v0z" />
<glyph unicode=":" horiz-adv-x="627" d="M313 684q-65 -2 -110 -37q-49 -35 -49 -86t51 -86q45 -37 108 -37q68 0 113 37q45 35 47 86q-2 51 -47 86t-113 37v0zM313 221q-65 -2 -110 -37q-49 -35 -49 -86t51 -86q45 -35 108 -37q68 2 113 37t47 86q-2 51 -47 86t-113 37v0z" />
<glyph unicode=";" horiz-adv-x="627" d="M313 221q-65 -2 -110 -37q-49 -35 -49 -86t51 -86q45 -35 108 -37q19 0 17 -34q0 -31 -23 -58q-26 -26 -61 -49q-35 -20 -70 -37q-37 -18 -61 -28v-58v0q139 37 245 125q109 90 113 240q-2 65 -47 106q-45 39 -113 39v0zM313 684q-65 -2 -110 -37q-49 -35 -49 -86t51 -86 q45 -37 108 -37q68 0 113 37q45 35 47 86q-2 51 -47 86t-113 37v0z" />
<glyph unicode="&#x3c;" horiz-adv-x="979" d="M96 338l787 -354v0v129l-627 280l627 281v129v0l-787 -355v-110z" />
<glyph unicode="=" horiz-adv-x="979" d="M96 475h787v135h-787v-135zM96 176h787v135h-787v-135z" />
<glyph unicode="&#x3e;" horiz-adv-x="979" d="M883 448l-787 355v0v-129l627 -281l-627 -280v-129v0l787 354v110z" />
<glyph unicode="?" horiz-adv-x="1024" d="M434 295h55q7 57 19 94q10 35 29 55q36 41 120 78q119 58 174 119q52 61 52 125q-2 76 -52 119q-51 43 -122 59q-72 18 -140 23q-67 2 -104 2q-90 2 -207 -27q-53 -14 -90 -49q-41 -37 -41 -94q2 -123 133 -121q53 0 92 29q39 24 41 79q0 25 -4 39q-6 17 -12 25 q-17 16 -19 41q2 24 39 28q31 5 47 5q152 0 150 -156q0 -53 -23 -92q-22 -39 -55 -78t-55 -96q-27 -58 -27 -148v-59zM467 160q-92 -2 -127 -35q-35 -35 -33 -59q-2 -23 33 -54q35 -35 127 -37q94 2 129 37q31 31 31 54q0 24 -31 59q-35 33 -129 35v0z" />
<glyph unicode="@" horiz-adv-x="1229" d="M504 379q2 135 61 207q53 69 105 69q43 -2 61 -30q14 -29 14 -70q-2 -111 -55 -193q-24 -36 -57 -59q-31 -27 -64 -27q-65 3 -65 103v0zM954 137v0q-100 -61 -313 -63q-180 0 -295 106q-115 101 -117 277q2 213 123 313q115 100 289 100q192 -2 291 -98q98 -94 98 -227 q0 -78 -35 -172q-20 -43 -55 -72q-37 -31 -88 -31q-49 0 -49 39q-2 15 8 56l86 348h-111l-10 -58h-4q-25 74 -108 74q-117 -2 -201 -100q-86 -99 -88 -244q2 -182 147 -182q49 0 96 26q46 25 74 76h2q17 -41 51 -69q33 -33 103 -33q71 0 123 37q49 32 80 82q59 110 59 225 q-2 194 -129 307t-340 115q-215 -2 -365 -142q-155 -139 -157 -376q0 -164 131 -314q131 -155 407 -162q234 7 340 84z" />
<glyph unicode="A" d="M831 33h-145v-33h643v33q-33 -2 -96 12q-31 10 -58 31q-28 18 -45 53l-358 840h-100l-459 -803q-31 -55 -78 -86q-45 -33 -98 -47v-33h403v33h-75l-76 157l57 101h453l80 -197zM371 336l213 377q8 10 16 10q10 -2 12 -6l164 -381h-405z" />
<glyph unicode="B" horiz-adv-x="1479" d="M309 117l-82 -84h-131v-33h787q51 0 122 4q72 6 144 27q37 12 67 30q31 15 54 39q45 45 47 131q0 60 -23 99q-24 39 -67 65q-88 49 -222 76q-32 8 -45 16q-14 7 -14 17q2 14 76 33q67 14 127 40q51 25 82 66q33 41 33 98q-3 70 -37 113q-35 41 -92 61q-56 21 -115 27 q-60 2 -109 2h-815v-33h119l94 -84v-710zM565 475h238q76 0 125 -22q47 -23 71 -58q27 -35 35 -73q8 -41 8 -78q0 -64 -41 -135q-22 -31 -65 -54q-43 -22 -107 -22h-178l-86 84v358zM565 827l76 84h162q86 0 149 -39q64 -41 66 -153q0 -70 -27 -109q-29 -43 -69 -63 q-41 -21 -80 -27q-41 -6 -70 -6h-207v313z" />
<glyph unicode="C" d="M1014 870v0q-35 31 -107 64q-76 33 -209 35q-209 -2 -368 -140q-168 -135 -172 -352q4 -233 172 -364q161 -136 387 -138q149 2 243 52q93 47 144 116q26 35 45 72q16 35 24 68q17 67 17 108h-33q-12 -170 -127 -274q-115 -107 -283 -109q-116 0 -180 49q-65 47 -94 121 q-29 76 -35 164q-8 84 -6 166q-2 186 64 307q65 119 239 121q117 -2 195 -49t123 -117q24 -31 43 -63q18 -35 28 -66q21 -64 27 -94h24v418h-24z" />
<glyph unicode="D" horiz-adv-x="1479" d="M297 125l-74 -92h-139v-33h747q234 2 375 135q139 129 141 344q-2 252 -163 361q-160 106 -414 104h-686v-33h137l76 -80v-706zM563 831l74 80h160q92 0 149 -39q55 -41 82 -106q31 -66 39 -141q6 -78 6 -154q0 -72 -4 -145q-6 -78 -31 -144q-22 -65 -78 -106 q-53 -43 -145 -43h-178l-74 86v712z" />
<glyph unicode="E" d="M297 117l-82 -84h-149v-33h1161v360h-25l-270 -327h-312l-67 76v380h147l187 -206h24v458h-24l-185 -213h-149v305l76 78h323l238 -323h33l-15 356h-1142v-33h137l94 -84v-710z" />
<glyph unicode="F" d="M297 117l-82 -84h-149v-33h767v33h-213l-67 76v380h160l149 -198h29v446h-29l-149 -209h-160v305l76 78h352l254 -342h29l-17 375h-1181v-33h137l94 -84v-710z" />
<glyph unicode="G" horiz-adv-x="1593" d="M1278 969q-14 -23 -41 -47q-14 -11 -35 -17q-20 -10 -49 -10q-61 2 -162 37q-102 35 -225 37q-240 0 -432 -129q-199 -131 -203 -394q0 -174 154 -317q149 -147 450 -154q172 5 305 48q66 20 121 32q53 13 92 13q43 0 58 -17l12 12q-16 37 -16 64v219l92 78h129v33h-699 v-33h150l72 -76v-229q-9 -29 -37 -47q-31 -21 -76 -37q-90 -27 -166 -27q-125 0 -197 37q-75 35 -112 92q-35 60 -47 137q-11 76 -11 160q0 64 11 150q8 86 43 163q35 82 110 136q76 51 207 53q111 0 193 -35q80 -35 137 -92t100 -117q39 -63 70 -117h24v394h-22z" />
<glyph unicode="H" horiz-adv-x="1593" d="M309 117l-82 -84h-143v-33h651v33h-84l-86 84v364h463v-364l-74 -84h-98v-33h653v33h-143l-82 84v710l94 84h131v33h-653v-33h86l86 -84v-299h-463v299l76 84h94v33h-651v-33h131l94 -84v-710z" />
<glyph unicode="I" horiz-adv-x="909" d="M322 117l-82 -84h-144v-33h717v33h-143l-82 84v710l94 84h131v33h-717v-33h131l95 -84v-710z" />
<glyph unicode="J" horiz-adv-x="1139" d="M348 911h131l94 -84v-565q0 -147 -53 -201q-55 -55 -151 -53q-45 0 -99 19q-55 18 -86 51q-6 6 -6 12q0 8 4 8q58 13 103 47q45 33 47 107q0 59 -33 100q-35 39 -96 39q-82 -2 -115 -51q-33 -51 -33 -111q2 -118 111 -184q102 -68 246 -70q43 0 112 11q70 10 142 43 q73 37 124 108q48 70 50 195v495l94 84h131v33h-717v-33z" />
<glyph unicode="K" horiz-adv-x="1479" d="M301 115l-80 -82h-137v-33h629v33h-99l-67 71v293l147 117v0l260 -383l-22 -98h-111v-33h635v33h-135l-78 82l-358 534l366 262h176v33h-663v-33h76l108 -149l-401 -301v0v385l63 65h54v33h-580v-33h133l84 -86v-710z" />
<glyph unicode="L" d="M324 106l-60 -73h-198v-33h1148v487h-32l-242 -454h-270l-80 73v734l82 71h168v33h-774v-33h186l72 -71v-734z" />
<glyph unicode="M" horiz-adv-x="1821" d="M106 0h535v33h-117l-135 153v652q0 26 21 26q18 0 24 -16l391 -848h21l329 825q9 21 21 33q8 12 20 12q21 0 21 -53v-700l-88 -84h-154v-33h719v33h-139l-82 84v710l94 84h127v33h-528l-242 -588h-14l-269 588h-555v-33h177q47 -2 57 -24q6 -23 6 -49v-652l-127 -153 h-113v-33z" />
<glyph unicode="N" horiz-adv-x="1593" d="M63 0h586v33h-123l-155 182v571h10l674 -786h211v729l161 182h103v33h-568v-33h132l129 -182v-530v0l-637 745h-523v-33h179q32 0 51 -10q18 -10 24 -27q11 -32 11 -61v-598l-150 -182h-115v-33z" />
<glyph unicode="O" horiz-adv-x="1593" d="M797 969q-273 -2 -463 -136q-199 -131 -203 -362q4 -227 203 -358q190 -136 463 -138q274 2 467 138q194 131 198 358q-4 231 -198 362q-193 134 -467 136v0zM797 936q131 0 211 -39q79 -39 118 -104q39 -66 52 -148q10 -84 10 -174q0 -86 -10 -168q-13 -82 -52 -147 q-39 -66 -118 -105q-80 -43 -211 -43t-207 43q-80 39 -119 105q-39 65 -51 147q-15 82 -15 168q0 90 15 174q12 82 51 148q39 65 119 104q76 39 207 39v0z" />
<glyph unicode="P" d="M563 833l76 78h174q23 0 57 -2q31 -4 66 -22q35 -19 61 -62q23 -45 23 -125q0 -34 -4 -71q-6 -41 -33 -76q-27 -33 -80 -55q-57 -25 -151 -25h-189v360zM297 123l-84 -90h-129v-33h719v33h-158l-82 82v319h270q140 -2 297 51q76 31 123 82q45 51 47 133q-2 82 -49 131 q-47 50 -121 74q-71 25 -151 33q-78 6 -139 6h-756v-33h119l94 -92v-696z" />
<glyph unicode="Q" horiz-adv-x="1593" d="M797 969q-273 -2 -463 -136q-199 -131 -203 -362q4 -227 203 -358q190 -136 463 -138q32 0 65 2q33 3 64 9q16 -47 36 -97q19 -49 46 -90q26 -41 69 -65q41 -29 98 -29q78 2 166 57q86 54 127 148l-24 18q-29 -28 -66 -49q-37 -22 -82 -22q-53 0 -98 37q-47 34 -98 137 q161 57 262 172q98 112 100 268q-4 231 -198 362q-193 134 -467 136v0zM797 936q131 0 211 -39q79 -39 118 -104q39 -66 52 -148q10 -84 10 -174q0 -53 -2 -106q-4 -56 -17 -105q-10 -49 -34 -92q-25 -43 -66 -78v0q-18 64 -76 137q-31 35 -80 58q-49 20 -118 20 q-76 0 -138 -39q-63 -39 -65 -125q2 -86 51 -108l-4 -4q-148 47 -193 172q-43 121 -41 270q0 90 15 174q12 82 51 148q39 65 119 104q76 39 207 39v0zM764 250q55 2 96 -45q41 -49 57 -185q-53 -12 -120 -12q-66 0 -111 29q-49 26 -49 90q0 45 18 72q17 24 37 34 q23 13 43 15q19 2 29 2v0z" />
<glyph unicode="R" horiz-adv-x="1479" d="M309 117l-82 -84h-161v-33h708v33h-133l-86 76v372h131q78 -2 117 -33q39 -32 47 -67l123 -381h385v33h-70q-16 0 -45 22q-31 21 -51 78l-80 270q-121 0 -182 23q-66 18 -66 47q-2 14 21 23q20 4 88 12q45 6 104 18q58 11 111 31q55 23 90 61q35 37 35 99q0 76 -39 121 t-103 69q-63 25 -135 33q-71 4 -141 4h-829v-33h149l94 -84v-710zM555 833l98 78h168q68 0 113 -14q43 -14 65 -43q41 -57 39 -135q0 -76 -37 -117q-36 -43 -102 -61q-31 -9 -68 -13q-41 -6 -84 -10q-90 -4 -192 -4v319z" />
<glyph unicode="S" d="M205 -25h28l121 97v0q19 -13 47 -29q27 -14 70 -31q80 -35 244 -37q188 0 329 70q142 68 146 240q0 104 -41 168q-41 61 -109 94q-65 33 -143 47q-82 12 -160 16q-190 17 -297 49q-112 33 -112 119q0 49 30 82q27 31 70 47q23 10 47 17q21 6 45 8q47 4 92 4 q228 -4 340 -88q58 -39 97 -86q36 -47 61 -94h29v301h-29l-107 -93q-43 25 -143 58q-102 33 -254 35q-119 0 -201 -25q-81 -29 -133 -72q-49 -43 -71 -96q-25 -53 -25 -108q2 -170 139 -240q131 -70 334 -86q60 -4 129 -10q70 -8 131 -25q64 -14 105 -45t41 -80 q-2 -86 -93 -129q-92 -45 -229 -45q-123 0 -205 33q-84 29 -139 76q-53 47 -90 104q-39 53 -66 105h-28v-351z" />
<glyph unicode="T" horiz-adv-x="1253" d="M494 129l-93 -96h-147v-33h745v33h-147l-92 96v782h200l203 -284h25v317h-1122v-317h24l203 284h201v-782z" />
<glyph unicode="U" horiz-adv-x="1593" d="M1276 741l155 170h119v33h-588v-33h123l154 -170v-475q0 -86 -39 -137t-98 -78q-60 -26 -119 -35q-64 -8 -111 -8q-88 0 -147 23q-59 22 -96 53q-33 33 -49 68q-17 34 -17 65v610l76 84h147v33h-716v-33h141l86 -84v-555q0 -94 55 -153q53 -60 135 -90q82 -29 174 -41 q91 -13 172 -13q441 -2 443 306v460z" />
<glyph unicode="V" d="M653 -25h31l377 744l170 192h94v33h-502v-33h96l103 -184l-221 -428q-2 -12 -13 -14q-6 0 -12 14l-264 526l68 86h110v33h-649v-33h96l86 -92z" />
<glyph unicode="W" horiz-adv-x="2048" d="M53 911h105l118 -141l369 -795h55l273 664q6 12 16 12q12 -2 16 -12l279 -664h47l377 744l170 192h117v33h-611v-33h129l154 -186l-217 -434q-4 -12 -12 -12q-9 0 -15 12l-278 653h-86l-277 -643q-2 -12 -10 -12q-6 0 -12 12l-236 510l62 100h127v33h-660v-33z" />
<glyph unicode="X" d="M41 0h559v33h-86l-55 178l172 186v0l196 -274l-41 -90h-67v-33h606v33q-68 -2 -117 20q-49 21 -114 109l-275 389l176 211l226 149h104v33h-473v-33h59l66 -116l-182 -211v0l-166 241l55 86h49v33h-635v-33h138l116 -112l256 -373l-168 -176l-295 -217h-104v-33z" />
<glyph unicode="Y" d="M543 117l-82 -84h-154v-33h744v33h-160l-82 84v323l199 295l210 176h107v33h-545v-33h70l129 -143l-189 -289q-6 -10 -16 -10q-6 0 -10 10l-201 361l57 71h56v33h-635v-33h143l86 -80l273 -456v-258z" />
<glyph unicode="Z" horiz-adv-x="1251" d="M168 584h24l273 327h325l-647 -868v-43h965v408h-25l-297 -375h-348l649 872v39h-919v-360z" />
<glyph unicode="[" horiz-adv-x="682" d="M184 -235h436v55h-219v1093h219v56h-436v-1204z" />
<glyph unicode="\" horiz-adv-x="569" d="M82 969h-135l540 -994h136z" />
<glyph unicode="]" horiz-adv-x="682" d="M498 969h-437v-56h220v-1093h-220v-55h437v1204z" />
<glyph unicode="^" horiz-adv-x="979" d="M156 377h135l198 409v0l199 -409h135l-282 567h-103z" />
<glyph unicode="_" horiz-adv-x="1024" d="M0 -256h1024v102h-1024v-102z" />
<glyph unicode="`" horiz-adv-x="682" d="M133 1161l227 -256h93l-168 256h-152z" />
<glyph unicode="a" horiz-adv-x="1251" d="M369 317l139 265q6 10 16 12q13 -2 15 -12l135 -265h-305zM37 0h387v33h-86l-64 114l74 138h344l105 -183l-37 -69h-142v-33h596v33q-51 -2 -98 10q-47 10 -80 61l-395 697h-55l-334 -611q-25 -49 -49 -75q-27 -31 -56 -45q-51 -29 -110 -37v-33z" />
<glyph unicode="b" d="M494 393h268q96 0 153 -41q58 -45 58 -141q-2 -96 -64 -137q-63 -41 -153 -41h-191l-71 71v289zM494 688l67 66h180q54 2 123 -19q33 -14 55 -47q21 -35 21 -96q-2 -90 -55 -129q-56 -39 -115 -37h-276v262zM276 104l-73 -71h-152v-33h754q45 0 114 4q70 2 138 21 q35 10 65 24q29 14 49 35q45 39 47 108q-4 93 -75 144q-70 49 -142 59q-108 21 -102 31q2 16 92 29q45 6 113 45q33 22 51 49q20 28 20 65q0 64 -38 101q-41 37 -101 51q-59 16 -123 18q-65 2 -118 2h-744v-32h156l69 -76v-574z" />
<glyph unicode="c" horiz-adv-x="1175" d="M899 721v0q-51 39 -117 63q-65 27 -182 27q-186 -2 -340 -115q-74 -55 -119 -135q-47 -80 -47 -178q2 -162 146 -281q139 -122 380 -127q136 2 226 50q88 45 139 106q51 64 76 115q24 51 26 65h-32q-33 -92 -86 -149q-54 -62 -113 -94q-59 -33 -113 -45q-55 -15 -94 -15 q-112 0 -176 47q-65 45 -94 109q-27 65 -33 129q-8 63 -6 102q-2 33 6 96q6 62 33 127q26 68 88 113q61 45 170 47q110 2 219 -67q109 -70 162 -252h33v352h-33z" />
<glyph unicode="d" d="M494 678l75 76h127q111 0 174 -33q64 -35 92 -88q29 -53 37 -117q4 -61 4 -125q0 -59 -4 -121q-8 -63 -37 -116q-28 -54 -92 -84q-63 -37 -174 -37h-133l-69 76v569zM276 104l-73 -71h-152v-33h649q262 2 410 115q147 108 149 276q0 64 -20 131q-23 70 -84 129 q-59 60 -170 99q-111 34 -285 36h-649v-32h156l69 -76v-574z" />
<glyph unicode="e" horiz-adv-x="1251" d="M262 106l-67 -73h-144v-33h1071l17 346h-33l-221 -313h-316l-71 73v267h163l117 -187h33v404h-33l-114 -185h-166v273l71 76h346l152 -252h33v284h-1049v-32h144l67 -74v-574z" />
<glyph unicode="f" horiz-adv-x="1251" d="M291 106l-68 -73h-147v-33h663v33h-141l-80 73v287h182l107 -188h33v403h-33l-107 -182h-182v248l98 80h330l164 -293h33v325h-1067v-32h147l68 -74v-574z" />
<glyph unicode="g" horiz-adv-x="1251" d="M1003 811q-18 -23 -47 -49q-28 -29 -63 -29q-12 0 -41 14q-27 11 -68 27q-39 16 -86 27q-47 10 -96 10q-197 0 -346 -109q-158 -110 -162 -315q0 -61 27 -131q24 -72 80 -135q55 -64 149 -103q92 -41 227 -43q105 2 195 21q92 14 152 16q47 0 73 -10q25 -8 37 -25l10 25 v262l70 68h113v33h-627v-33h166l61 -72v-149q2 -95 -237 -103q-86 0 -135 35q-52 33 -76 86q-25 57 -31 125q-8 68 -8 139q0 72 12 141q10 68 37 123q29 58 80 88q53 33 135 33q84 2 209 -53q59 -31 113 -86q24 -29 47 -66q18 -36 35 -82h32v320h-37z" />
<glyph unicode="h" d="M264 106l-67 -73h-121v-33h549v33h-70l-74 73v273h404v-273l-62 -73h-82v-33h549v33h-104l-84 73v574l71 74h117v32h-553v-32h82l66 -74v-254h-404v254l68 74h69v32h-542v-32h116l72 -74v-574z" />
<glyph unicode="i" horiz-adv-x="797" d="M76 0h645v33h-129l-80 73v574l80 74h129v32h-645v-32h141l68 -74v-574l-68 -73h-141v-33z" />
<glyph unicode="j" horiz-adv-x="1024" d="M293 754h147l68 -74v-508q2 -63 -21 -113q-14 -22 -51 -34q-39 -17 -104 -17q-19 0 -53 8q-41 7 -43 23q0 12 18 24q16 13 35 29q47 33 51 103q-2 63 -37 100q-37 35 -100 37q-64 0 -105 -37q-47 -41 -47 -113q0 -76 41 -116q35 -43 88 -62q29 -8 56 -12q24 -6 49 -10 q24 -2 47 -2q20 -5 33 -5q139 2 217 31q75 29 108 74q33 47 41 96q4 47 4 88v416l80 74h123v32h-645v-32z" />
<glyph unicode="k" d="M264 106l-67 -73h-121v-33h559v33h-76l-68 67v195l185 115v0l241 -306l-32 -71h-113v-33h549v33h-80l-389 493l352 228h94v32h-532v-32h70l114 -119l-459 -293v0v354l68 58h76v32h-559v-32h116l72 -74v-574z" />
<glyph unicode="l" horiz-adv-x="1251" d="M256 106l-68 -73h-137v-33h1106v397h-33l-233 -364h-328l-80 73v574l80 74h154v32h-666v-32h137l68 -74v-574z" />
<glyph unicode="m" horiz-adv-x="1593" d="M285 156l-99 -123h-92v-33h426v33h-78l-112 123v538q0 13 14 15q10 -2 14 -11l361 -678h16l328 684q4 9 16 9q10 0 13 -9v-595l-60 -76h-110v-33h577v33h-119l-71 82v563l84 76h106v32h-440l-242 -505v0l-268 505h-455v-32h137q29 -2 41 -25q13 -25 13 -45v-528z" />
<glyph unicode="n" d="M74 0h489v33h-137l-100 129v452v0l702 -614h57v633l99 121h108v32h-477v-32h129l96 -123v-350v0l-571 505h-395v-32h139q49 -2 59 -37q9 -35 9 -60v-501l-95 -123h-112v-33z" />
<glyph unicode="o" horiz-adv-x="1253" d="M1159 393q-4 195 -168 307q-160 109 -364 111q-201 0 -361 -107q-168 -108 -172 -311q4 -203 172 -309q160 -109 361 -109q204 2 364 113q164 111 168 305v0zM913 393q0 -53 -4 -117q-4 -65 -30 -127q-27 -59 -84 -98q-62 -43 -168 -43q-107 0 -164 43q-60 39 -86 98 q-27 62 -31 127q-8 64 -6 117q-2 58 6 123q4 66 31 125q26 59 86 98q57 39 164 39q106 0 168 -39q57 -41 84 -100q26 -59 30 -125t4 -121v0z" />
<glyph unicode="p" horiz-adv-x="1251" d="M283 106l-64 -73h-143v-33h637v33h-131l-72 73v259h254q162 -3 285 47q122 49 126 178q0 10 -4 43q-6 31 -39 65q-32 35 -104 62q-74 26 -205 26h-313h-434v-32h143l64 -76v-572zM510 688l57 66h219q35 2 97 -25q28 -16 47 -53q18 -37 18 -99q-2 -90 -55 -133 q-53 -47 -146 -47h-237v291z" />
<glyph unicode="q" horiz-adv-x="1251" d="M1141 -72q-17 -24 -41 -45q-25 -20 -76 -22q-59 2 -94 49q-39 45 -68 110q129 48 213 144q82 96 84 229q-4 195 -168 307q-160 109 -364 111q-201 0 -361 -107q-168 -108 -172 -311q4 -203 172 -309q160 -109 361 -109q24 2 49 2q24 5 49 7q14 -90 61 -158 q45 -74 146 -76q26 -2 102 23q37 16 74 49q35 31 61 88zM627 778q106 0 168 -39q57 -41 84 -100q26 -59 30 -125t4 -121q0 -71 -10 -157q-12 -89 -72 -154v0q-28 70 -79 125q-54 51 -146 53q-82 -2 -123 -43q-41 -45 -41 -104q0 -39 13 -56l-4 -4q-39 31 -62 74 q-22 41 -35 88q-8 47 -12 94q-2 47 -2 84q-2 58 6 123q4 66 31 125q26 59 86 98q57 39 164 39v0zM717 18q-39 -10 -88 -10q-58 -2 -101 19q-47 20 -47 86q0 39 29 71q27 29 76 31q63 0 88 -47q24 -49 43 -150v0z" />
<glyph unicode="r" d="M491 688l66 66h170q39 2 106 -25q72 -31 76 -135q4 -168 -309 -168h-109v262zM264 106l-67 -73h-121v-33h590v33h-107l-68 67v293q82 0 136 -6q51 -8 88 -43q65 -61 159 -344h375v39q-67 4 -102 27q-35 22 -66 90l-71 155q-50 4 -131 23q-37 8 -64 20q-31 13 -31 27 q-2 20 21 29q22 8 98 18q88 10 174 43q41 18 66 51q22 31 22 80q-2 70 -43 109t-104 53q-60 18 -121 20q-59 2 -98 2h-723v-32h116l72 -74v-574z" />
<glyph unicode="s" horiz-adv-x="1139" d="M178 -25h25l100 88v0q47 -26 129 -55q80 -31 203 -33q26 0 84 5q55 6 114 28q62 25 107 78q41 53 43 147q0 89 -37 144q-37 53 -100 80q-62 26 -137 39q-74 12 -150 16q-125 10 -201 35q-77 24 -79 100q0 53 53 92t172 39q98 0 166 -18q67 -19 112 -51q45 -31 76 -68 q27 -37 45 -78h25v242h-25l-82 -78v0q-47 31 -119 57q-73 27 -198 27q-94 0 -162 -23q-66 -22 -109 -61q-79 -78 -77 -172q0 -86 47 -137q45 -51 106 -78q64 -27 121 -35q57 -12 88 -14q219 -15 297 -35q72 -23 70 -96q-2 -76 -74 -113q-72 -39 -162 -39q-82 -4 -215 41 q-63 25 -123 76q-61 49 -108 133h-25v-283z" />
<glyph unicode="t" horiz-adv-x="1139" d="M465 115l-70 -82h-172v-33h692v33h-172l-69 82v639h170l168 -342h20v374h-926v-374h21l168 342h170v-639z" />
<glyph unicode="u" d="M248 260q-2 -295 424 -285q192 0 309 72q115 70 117 254v311l127 142h90v32h-512v-32h137l119 -134v-309q0 -303 -355 -297q-22 0 -59 4q-37 2 -76 15q-37 14 -63 45q-31 31 -31 82v522l74 72h129v32h-627v-32h129l68 -76v-418z" />
<glyph unicode="v" horiz-adv-x="1251" d="M57 754h76l103 -72l395 -707h30l330 666l131 113h72v32h-418v-32h96l84 -105l-196 -403q-6 -17 -17 -17q-8 0 -16 17l-227 426l45 82h104v32h-592v-32z" />
<glyph unicode="w" horiz-adv-x="1706" d="M45 754q86 -2 127 -43t49 -66l342 -670h29l231 512q2 9 10 11q9 -2 11 -11l276 -512h37l338 656l92 123h74v32h-348v-32h92l61 -107l-200 -395q-7 -16 -19 -16t-18 16l-275 534h-32l-236 -512q-6 -14 -12 -14t-13 14l-182 371l80 109h88v32h-602v-32z" />
<glyph unicode="x" horiz-adv-x="1251" d="M106 33h-61v-33h455v33h-92l-78 129l198 164v0l211 -236l-20 -57h-76v-33h563v33q-51 4 -100 22q-51 17 -105 74l-284 322l301 245l98 58h86v32h-440v-32h76l71 -97l-219 -178v0l-192 199l57 76h74v32h-570v-32q25 0 52 -4q24 -7 55 -39l338 -359z" />
<glyph unicode="y" horiz-adv-x="1251" d="M86 786v-32h92l74 -80l244 -412v-147l-68 -82h-137v-33h639v33h-131l-76 76v217l209 286l166 142h98v32h-461v-32h68l102 -109l-203 -274q-4 -11 -14 -11q-8 0 -14 13l-178 305l43 76h63v32h-516z" />
<glyph unicode="z" horiz-adv-x="1139" d="M152 465h28l176 289h338l-563 -715v-39h860v346h-29l-182 -313h-358l547 708v45h-817v-321z" />
<glyph unicode="{" horiz-adv-x="682" d="M47 365q43 -17 72 -35q28 -21 43 -49q26 -52 26 -123v-228q0 -104 84 -135q82 -30 267 -30v45q-80 0 -113 24q-33 25 -33 96v228q0 65 -35 121q-41 53 -151 86v4q110 34 151 90q35 53 35 116v228q0 71 33 98q33 23 113 23v45q-185 2 -267 -27q-84 -33 -84 -139v-228 q0 -71 -26 -120q-31 -52 -115 -86v-4z" />
<glyph unicode="|" horiz-adv-x="455" d="M160 -512h135v2048h-135v-2048z" />
<glyph unicode="}" horiz-adv-x="682" d="M635 369q-82 34 -111 86q-33 49 -30 120v228q0 106 -80 139q-84 29 -271 27v-45q82 0 115 -23q31 -27 31 -98v-228q-2 -63 39 -116q39 -56 147 -90v-4q-53 -15 -90 -37q-37 -21 -57 -49q-41 -56 -39 -121v-228q0 -71 -31 -96q-33 -24 -115 -24v-45q187 0 271 30 q80 31 80 135v228q-3 71 30 123q29 53 111 84v4z" />
<glyph unicode="~" horiz-adv-x="979" d="M793 518v0q-25 -41 -56 -74q-33 -34 -82 -34q-61 2 -153 49q-43 22 -88 39q-45 16 -88 16q-76 -2 -123 -41q-47 -41 -72 -92l55 -113v0q29 45 62 78q31 33 76 33q63 -2 153 -49q47 -21 92 -37q43 -19 86 -19q78 2 123 43q45 39 70 91z" />
<glyph unicode="&#xa1;" horiz-adv-x="684" d="M315 485l-125 -493q-8 -23 -8 -47q0 -70 51 -99q46 -28 109 -28t113 28q45 29 47 99q0 24 -8 47l-125 493h-54zM342 627q94 2 129 39q18 16 25 32q6 13 6 23q0 24 -31 57q-35 31 -129 33q-92 -2 -127 -33q-35 -33 -33 -57q-2 -21 33 -55q35 -37 127 -39v0z" />
<glyph unicode="&#xa2;" horiz-adv-x="1253" d="M776 657q31 0 78 -14q22 -8 39 -20q12 -17 12 -35q-2 -21 -31 -39q-12 -8 -22 -27q-10 -18 -10 -45q0 -39 30 -67q29 -33 80 -33q58 0 88 35q29 30 29 77q0 60 -29 99q-28 37 -71 61q-43 25 -88 39q-43 12 -76 19l84 212h-78l-80 -202h-67q-193 0 -332 -92 q-146 -95 -148 -289q-4 -68 43 -162q27 -47 80 -88q51 -43 137 -78l-98 -250h80l92 236q16 -6 45 -10q29 -7 94 -9q50 0 109 9q57 10 110 30q58 23 101 62q41 37 63 98h-55q-29 -70 -111 -106q-81 -37 -165 -37q-91 0 -168 45zM491 102v0q-61 62 -81 109q-23 47 -21 137 q4 313 328 313z" />
<glyph unicode="&#xa3;" horiz-adv-x="1253" d="M702 549h-184q-33 112 -43 153q-10 39 -10 68q0 86 61 127q58 39 156 39q65 0 104 -8q37 -9 54 -25q18 -12 22 -27q2 -12 2 -22q-2 -39 -35 -72q-12 -18 -22 -37q-14 -22 -14 -47q0 -51 30 -75q29 -27 66 -27q43 0 82 29q37 28 39 100q2 78 -74 158q-39 39 -111 63 q-69 23 -174 23q-166 0 -274 -68q-115 -72 -117 -233q0 -74 19 -119h-181v-55h191q28 -86 28 -193q-2 -88 -24 -135q-27 -47 -55 -68q-31 -20 -46 -37q-16 -16 -16 -36q0 -25 21 -37q16 -13 36 -13q37 2 91 27q53 25 112 27q88 -2 176 -27q43 -10 88 -16q43 -11 86 -11 q105 2 164 37q62 33 90 78q31 47 41 88q8 41 8 62h-38q-17 -43 -39 -72q-27 -31 -78 -31q-39 2 -94 33q-58 31 -140 33q-53 0 -96 -13q-43 -12 -78 -32q-32 -19 -61 -33q-29 -16 -53 -16q-33 0 -33 26q2 14 31 57q28 39 49 78q39 72 53 123q10 51 10 101h180v55z" />
<glyph unicode="&#xa4;" horiz-adv-x="1253" d="M229 473q0 -135 82 -237l-90 -89l74 -73v0l88 88v0q102 -82 244 -82q141 0 243 82v0l88 -88v0l74 73l-90 89q80 102 82 237q0 137 -82 240l90 88l-74 73v0l-88 -88v0q-100 80 -243 82q-144 -2 -244 -82v0l-88 88v0l-74 -73l90 -88q-82 -103 -82 -240v0zM627 197 q-113 0 -187 82q-75 75 -75 194q0 123 75 201q74 76 187 78q116 -2 188 -78q72 -78 74 -201q-2 -119 -74 -194q-72 -82 -188 -82v0z" />
<glyph unicode="&#xa5;" horiz-adv-x="1253" d="M457 461h-185v-56h211l21 -30v-84h-232v-55h232v-119l-76 -84h-139v-33h682v33h-146l-75 84v119h264v55h-264v114h264v56h-254l170 274l194 176h92v33h-493v-33h63l119 -145l-174 -287q-6 -10 -14 -10q-6 0 -10 10l-185 361l53 71h52v33h-590v-33h139l78 -80z" />
<glyph unicode="&#xa6;" horiz-adv-x="455" d="M160 -358h135v716h-135v-716zM160 666h135v716h-135v-716z" />
<glyph unicode="&#xa7;" horiz-adv-x="1024" d="M809 971h-33l-59 -72v0q-45 35 -92 53q-50 17 -129 17q-86 0 -144 -21q-57 -20 -92 -55q-33 -33 -49 -68q-14 -37 -14 -65q-2 -21 20 -76q21 -57 117 -117q-94 -22 -152 -73q-63 -52 -63 -154q0 -68 26 -113q23 -47 64 -78q41 -30 90 -51q47 -22 98 -41q187 -61 246 -94 q33 -18 45 -39q8 -24 8 -57q-2 -70 -65 -96q-64 -27 -123 -27q-68 2 -113 25q-47 22 -78 57q-26 35 -45 72q-18 34 -26 61h-29v-246h29l59 70v0q45 -29 94 -49q49 -23 129 -23q86 0 189 47q47 27 80 70q28 43 28 106q-2 76 -47 119q-45 41 -94 64v4q86 12 154 71 q65 58 67 156q-2 119 -78 180q-77 60 -194 97q-191 69 -250 104q-59 33 -57 84q-2 18 24 68q19 22 51 38q33 17 95 17q90 -2 147 -31q55 -29 84 -69q31 -39 41 -72q8 -33 8 -41h33v248zM620 147q-118 23 -251 86q-62 31 -103 74q-43 41 -43 90q2 74 64 109q57 33 100 33 q35 -2 213 -68q80 -31 139 -76q60 -47 62 -102q-4 -88 -76 -117q-68 -33 -84 -31q-6 0 -21 2v0z" />
<glyph unicode="&#xa8;" horiz-adv-x="682" d="M440 1032q2 -84 90 -88q39 0 64 27q24 24 24 61q0 39 -24 64q-25 26 -64 26q-88 -4 -90 -90v0zM63 1032q3 -84 91 -88q38 0 63 27q25 24 25 61q0 39 -25 64q-25 26 -63 26q-88 -4 -91 -90v0z" />
<glyph unicode="&#xa9;" horiz-adv-x="1229" d="M827 606v92q2 13 -32 33q-56 31 -156 33q-143 -2 -217 -86t-74 -195q4 -280 295 -286q82 -2 152 24q28 12 30 29l25 102h-33q-18 -45 -57 -80q-39 -36 -105 -36q-92 0 -135 75q-43 72 -43 178q0 105 45 170q43 64 129 66q74 -2 107 -39q35 -37 37 -80h32zM119 473 q2 -211 145 -350q139 -143 350 -148q211 5 353 148q139 139 143 350q-4 211 -143 352q-142 140 -353 144q-211 -4 -350 -144q-143 -141 -145 -352v0zM217 473q2 174 115 285q110 110 282 112q174 -2 285 -112q111 -111 113 -285q-2 -172 -113 -285q-111 -112 -285 -114 q-172 2 -282 114q-113 113 -115 285v0z" />
<glyph unicode="&#xaa;" horiz-adv-x="831" d="M248 678l90 158q6 8 10 8q8 0 10 -8l88 -158h-198zM424 969h-35l-217 -367q-33 -55 -68 -72q-34 -18 -71 -22v-21h256v21h-62l-41 67l50 82h223l67 -108l-24 -41h-92v-21h389v21q-35 -2 -64 6q-31 8 -53 37z" />
<glyph unicode="&#xab;" horiz-adv-x="1139" d="M438 10h162l-266 320l266 319h-162l-266 -319zM805 10h162l-267 320l267 319h-162l-266 -319z" />
<glyph unicode="&#xac;" horiz-adv-x="979" d="M747 176h136v434h-787v-135h651v-299z" />
<glyph unicode="&#xad;" horiz-adv-x="682" d="M102 303h478v205h-478v-205z" />
<glyph unicode="&#xae;" horiz-adv-x="1229" d="M393 227h242v33q-76 -2 -74 57v125h39l111 -172q24 -45 71 -43h88v33q-37 0 -63 49l-107 156q58 16 88 53q29 37 29 86q0 129 -174 129h-250v-20q29 0 47 -13q17 -14 17 -47v-336q0 -59 -64 -57v-33zM561 694h43q92 2 96 -94q0 -49 -20 -82q-25 -37 -74 -37h-45v213z M119 473q2 -211 145 -350q139 -143 350 -148q211 5 353 148q139 139 143 350q-4 211 -143 352q-142 140 -353 144q-211 -4 -350 -144q-143 -141 -145 -352v0zM217 473q2 174 115 285q110 110 282 112q174 -2 285 -112q111 -111 113 -285q-2 -172 -113 -285 q-111 -112 -285 -114q-172 2 -282 114q-113 113 -115 285v0z" />
<glyph unicode="&#xaf;" horiz-adv-x="682" d="M90 967h502v116h-502v-116z" />
<glyph unicode="&#xb0;" horiz-adv-x="614" d="M104 766q0 -86 60 -143q57 -60 143 -60q88 0 146 60q55 57 57 143q-2 88 -57 145q-58 56 -146 58q-86 -2 -143 -58q-60 -57 -60 -145v0zM203 766q0 47 30 76q29 28 74 28q47 0 76 -28q29 -29 29 -76q0 -45 -29 -74q-29 -31 -76 -31q-45 0 -74 31q-30 29 -30 74v0z" />
<glyph unicode="&#xb1;" horiz-adv-x="979" d="M422 561h-326v-135h326v-223h135v223h326v135h-326v225h-135v-225zM96 0h787v135h-787v-135z" />
<glyph unicode="&#xb2;" horiz-adv-x="815" d="M133 373v41q0 14 10 26q9 11 35 13q55 -2 135 -39q41 -17 86 -27q43 -14 92 -14q99 0 158 59q58 57 62 145h-21q-6 -55 -33 -79q-28 -27 -65 -27q-51 2 -115 33q-63 30 -153 33q-119 -19 -127 -29q-13 0 -13 10q0 25 23 41q20 16 43 29q43 24 108 39q64 12 131 24 q72 10 136 43q63 33 65 113q-2 80 -84 123q-82 39 -217 39q-72 0 -164 -27q-41 -14 -69 -43q-31 -27 -31 -70q0 -36 27 -55q26 -20 61 -20q80 2 84 77q-2 39 -31 56q-30 14 -33 20q0 12 17 21q16 6 37 12q47 8 75 8q82 0 111 -35q27 -34 27 -92q-2 -67 -62 -106 q-57 -41 -135 -76q-37 -19 -72 -37q-34 -20 -63 -47q-27 -27 -43 -61q-21 -37 -21 -86v-35h29z" />
<glyph unicode="&#xb3;" horiz-adv-x="815" d="M262 659q148 0 203 -22q53 -21 51 -100q0 -17 -2 -39q-2 -25 -18 -50q-15 -22 -52 -38q-34 -17 -102 -17q-12 0 -51 4q-17 4 -29 11q-16 6 -16 16q10 16 18 65q-2 45 -26 64q-27 14 -52 14q-82 -2 -84 -80q0 -39 35 -63q29 -23 74 -35q45 -8 86 -12q39 -4 55 -4 q94 -2 223 20q60 17 99 49q39 31 39 88q-2 60 -47 93q-48 30 -91 38q-43 9 -38 19q0 8 26 16q55 23 90 49q33 27 33 70q-2 55 -37 86q-39 31 -92 45t-102 21q-52 2 -80 2q-135 0 -189 -33q-53 -33 -51 -78q2 -74 78 -76q12 0 47 11q35 10 37 53q-2 30 -16 41q-17 10 -17 26 q0 17 29 27q29 8 78 8q73 0 100 -35q25 -34 25 -100q0 -86 -43 -111q-45 -24 -154 -22h-37v-21z" />
<glyph unicode="&#xb4;" horiz-adv-x="682" d="M229 905h93l227 256h-152z" />
<glyph unicode="&#xb5;" horiz-adv-x="1253" d="M1022 786h-227v-362q2 -326 -183 -326q-155 2 -153 123v565h-228v-553q-2 -256 -12 -346q-16 -94 -16 -147q0 -49 30 -78q29 -29 70 -31q90 4 92 107q-4 74 -57 153q-23 39 -39 89q-18 49 -18 108v21h4q43 -72 90 -103t123 -31q258 5 309 238h4q0 -143 39 -193 q37 -47 110 -45q95 2 150 76q53 72 55 170h-39q-4 -63 -22 -98q-19 -39 -45 -39q-39 -2 -37 63v639z" />
<glyph unicode="&#xb6;" horiz-adv-x="1024" d="M463 -250q-19 -6 -70 -6q-45 0 -104 16q-62 17 -92 41v0l-17 -32q47 -31 121 -43q76 -15 137 -15q162 4 242 84q76 78 76 178v867q-2 71 82 71h53v33h-516q-131 -2 -199 -74q-70 -75 -70 -198q-2 -127 78 -203q80 -82 279 -82v-637zM537 911h120v-979q-2 -69 -37 -108 q-38 -41 -83 -62v1149z" />
<glyph unicode="&#xb8;" horiz-adv-x="682" d="M322 0l-58 -188l12 6q33 6 46 4q16 2 65 -10q23 -7 37 -23q14 -18 14 -49q0 -29 -26 -55q-29 -29 -97 -31q-45 2 -92 18q-45 17 -88 39l-16 -59q102 -51 217 -53q69 0 139 34q35 19 55 46q19 26 19 63q0 47 -37 90q-39 45 -123 45h-51l35 123h-51z" />
<glyph unicode="&#xb9;" horiz-adv-x="815" d="M131 387h567v21h-127l-71 49v512h-27q-37 -13 -94 -19q-60 -6 -109 -6h-131v-20h129l60 -52v-415l-52 -49h-145v-21z" />
<glyph unicode="&#xba;" horiz-adv-x="831" d="M70 717q0 -58 32 -105q29 -45 80 -80q105 -65 234 -65q135 0 237 70q107 65 109 180q-2 119 -109 186q-102 66 -237 66q-129 0 -234 -64q-110 -65 -112 -188v0zM231 717q0 35 5 76q2 38 20 73q16 37 55 60q37 22 105 22q69 0 108 -22q39 -25 53 -62q19 -35 21 -74 q2 -38 2 -73q2 -68 -23 -146q-14 -34 -53 -57q-39 -27 -108 -27q-68 0 -105 27q-39 23 -55 57q-18 39 -20 76q-5 39 -5 70v0z" />
<glyph unicode="&#xbb;" horiz-adv-x="1139" d="M967 330l-267 319h-161l266 -319l-266 -320h161zM600 330l-266 319h-162l266 -319l-266 -320h162z" />
<glyph unicode="&#xbc;" horiz-adv-x="1876" d="M1468 229h-276v19l246 252q8 8 20 8q8 -2 10 -12v-267zM1640 571h-172l-309 -317v-57h309v-123l-49 -54h-115v-20h459v20h-78l-45 54v123h121v32h-121v342zM1474 969h-151l-870 -994h151zM131 387h567v21h-127l-71 49v512h-27q-37 -13 -94 -19q-60 -6 -109 -6h-131v-20 h129l60 -52v-415l-52 -49h-145v-21z" />
<glyph unicode="&#xbd;" horiz-adv-x="1876" d="M1450 969h-152l-870 -994h152zM131 387h567v21h-127l-71 49v512h-27q-37 -13 -94 -19q-60 -6 -109 -6h-131v-20h129l60 -52v-415l-52 -49h-145v-21zM1194 -25v41q0 15 10 27q8 10 35 12q55 -2 135 -39q41 -16 86 -26q43 -13 92 -15q99 2 158 60q57 57 61 145h-20 q-6 -55 -33 -80q-29 -26 -65 -26q-52 2 -115 32q-64 31 -154 33q-118 -18 -127 -28q-12 0 -12 10q0 24 23 41q20 16 43 28q43 25 108 39q64 13 131 25q72 10 135 43q64 33 66 113q-2 79 -84 122q-82 39 -217 39q-72 0 -164 -26q-41 -15 -70 -43q-30 -27 -30 -70 q0 -37 26 -55q27 -21 62 -21q80 2 84 78q-2 39 -31 55q-31 15 -33 21q0 12 17 20q16 7 36 13q48 8 76 8q82 0 111 -35q26 -35 26 -92q-2 -68 -61 -107q-57 -41 -135 -75q-37 -19 -72 -37q-35 -21 -63 -47q-27 -27 -43 -62q-21 -37 -21 -86v-35h29z" />
<glyph unicode="&#xbe;" horiz-adv-x="1876" d="M1462 969h-151l-871 -994h152zM262 659q148 0 203 -22q53 -21 51 -100q0 -17 -2 -39q-2 -25 -18 -50q-15 -22 -52 -38q-34 -17 -102 -17q-12 0 -51 4q-17 4 -29 11q-16 6 -16 16q10 16 18 65q-2 45 -26 64q-27 14 -52 14q-82 -2 -84 -80q0 -39 35 -63q29 -23 74 -35 q45 -8 86 -12q39 -4 55 -4q94 -2 223 20q60 17 99 49q39 31 39 88q-2 60 -47 93q-48 30 -91 38q-43 9 -38 19q0 8 26 16q55 23 90 49q33 27 33 70q-2 55 -37 86q-39 31 -92 45t-102 21q-52 2 -80 2q-135 0 -189 -33q-53 -33 -51 -78q2 -74 78 -76q12 0 47 11q35 10 37 53 q-2 30 -16 41q-17 10 -17 26q0 17 29 27q29 8 78 8q73 0 100 -35q25 -34 25 -100q0 -86 -43 -111q-45 -24 -154 -22h-37v-21zM1468 229h-276v19l246 252q8 8 20 8q8 -2 10 -12v-267zM1640 571h-172l-309 -317v-57h309v-123l-49 -54h-115v-20h459v20h-78l-45 54v123h121v32 h-121v342z" />
<glyph unicode="&#xbf;" horiz-adv-x="1024" d="M590 491h-56q-8 -106 -43 -147q-36 -41 -124 -80q-230 -115 -226 -244q2 -71 56 -114q51 -43 122 -62q74 -16 140 -22q67 -4 100 -4q92 -2 211 28q55 19 90 54q35 32 37 88q-4 121 -133 121q-51 0 -90 -25q-41 -29 -43 -84q2 -43 18 -59q15 -19 17 -45q-2 -23 -35 -29 q-31 -4 -51 -4q-154 0 -150 155q0 58 27 97q22 39 55 77q33 39 55 97q23 55 23 143v59zM557 627q94 2 129 39q18 16 25 32q6 13 6 23q0 24 -31 57q-35 31 -129 33q-92 -2 -127 -33q-35 -33 -33 -57q-2 -21 33 -55q35 -37 127 -39v0z" />
<glyph unicode="&#xc0;" d="M831 33h-145v-33h643v33q-33 -2 -96 12q-31 10 -58 31q-28 18 -45 53l-358 840h-100l-459 -803q-31 -55 -78 -86q-45 -33 -98 -47v-33h403v33h-75l-76 157l57 101h453l80 -197zM371 336l213 377q8 10 16 10q10 -2 12 -6l164 -381h-405zM488 1319l227 -256h93l-168 256 h-152z" />
<glyph unicode="&#xc1;" d="M831 33h-145v-33h643v33q-33 -2 -96 12q-31 10 -58 31q-28 18 -45 53l-358 840h-100l-459 -803q-31 -55 -78 -86q-45 -33 -98 -47v-33h403v33h-75l-76 157l57 101h453l80 -197zM371 336l213 377q8 10 16 10q10 -2 12 -6l164 -381h-405zM587 1063h93l227 256h-152z" />
<glyph unicode="&#xc2;" d="M831 33h-145v-33h643v33q-33 -2 -96 12q-31 10 -58 31q-28 18 -45 53l-358 840h-100l-459 -803q-31 -55 -78 -86q-45 -33 -98 -47v-33h403v33h-75l-76 157l57 101h453l80 -197zM371 336l213 377q8 10 16 10q10 -2 12 -6l164 -381h-405zM422 1063h96l178 166v0l176 -166 h96l-196 256h-154z" />
<glyph unicode="&#xc3;" d="M831 33h-145v-33h643v33q-33 -2 -96 12q-31 10 -58 31q-28 18 -45 53l-358 840h-100l-459 -803q-31 -55 -78 -86q-45 -33 -98 -47v-33h403v33h-75l-76 157l57 101h453l80 -197zM371 336l213 377q8 10 16 10q10 -2 12 -6l164 -381h-405zM492 1092q4 20 25 45q20 22 69 24 q31 -2 103 -20q35 -6 63 -14q27 -9 39 -9q10 0 37 5q27 4 57 18q33 14 58 51q22 37 30 96h-73q-17 -32 -33 -49q-18 -16 -66 -16q-36 0 -98 22q-59 19 -108 21q-64 -2 -115 -49t-62 -125h74z" />
<glyph unicode="&#xc4;" d="M831 33h-145v-33h643v33q-33 -2 -96 12q-31 10 -58 31q-28 18 -45 53l-358 840h-100l-459 -803q-31 -55 -78 -86q-45 -33 -98 -47v-33h403v33h-75l-76 157l57 101h453l80 -197zM371 336l213 377q8 10 16 10q10 -2 12 -6l164 -381h-405zM795 1190q2 -84 90 -88q39 0 64 27 q24 24 24 61q0 39 -24 64q-25 26 -64 26q-88 -4 -90 -90v0zM418 1190q3 -84 91 -88q38 0 63 27q25 24 25 61q0 39 -25 64q-25 26 -63 26q-88 -4 -91 -90v0z" />
<glyph unicode="&#xc5;" d="M831 33h-145v-33h643v33q-33 -2 -96 12q-31 10 -58 31q-28 18 -45 53l-358 840h-100l-459 -803q-31 -55 -78 -86q-45 -33 -98 -47v-33h403v33h-75l-76 157l57 101h453l80 -197zM371 336l213 377q8 10 16 10q10 -2 12 -6l164 -381h-405zM567 1211q0 -70 51 -117 q47 -51 119 -51q74 0 121 51q45 47 47 117q-2 73 -47 120q-47 45 -121 48q-72 -3 -119 -48q-51 -47 -51 -120v0zM628 1211q0 45 33 75q33 29 76 31q45 -2 76 -31q28 -30 30 -75q-2 -45 -30 -74q-31 -33 -76 -33q-43 0 -76 33q-33 29 -33 74v0z" />
<glyph unicode="&#xc6;" horiz-adv-x="2048" d="M979 473h-418l352 438h66v-438zM979 117l-82 -84h-150v-33h1162v360h-25l-270 -327h-312l-67 76v380h147l187 -206h24v458h-24l-185 -213h-149v305l76 78h323l238 -323h33l-15 356h-1257v-33q55 -4 84 -28q28 -29 28 -66t-24 -70l-350 -421q-125 -154 -197 -205 q-70 -55 -154 -88v-33h484v33h-111l-69 157l202 244h453v-317z" />
<glyph unicode="&#xc7;" d="M1014 870v0q-35 31 -107 64q-76 33 -209 35q-209 -2 -368 -140q-168 -135 -172 -352q2 -215 151 -346q142 -131 350 -156l-51 -163l12 6q33 6 46 4q16 2 65 -10q23 -7 37 -23q14 -18 14 -49q0 -29 -26 -55q-29 -29 -97 -31q-45 2 -92 18q-45 17 -88 39l-16 -59 q102 -51 217 -53q70 0 139 34q35 19 55 46q19 26 19 63q0 47 -37 90q-39 45 -123 45h-51l29 98h6q149 2 243 52q93 47 144 116q26 35 45 72q16 35 24 68q17 67 17 108h-33q-12 -170 -127 -274q-115 -107 -283 -109q-116 0 -180 49q-65 47 -94 121q-29 76 -35 164 q-8 84 -6 166q-2 186 64 307q65 119 239 121q117 -2 195 -49t123 -117q24 -31 43 -63q18 -35 28 -66q21 -64 27 -94h24v418h-24z" />
<glyph unicode="&#xc8;" d="M297 117l-82 -84h-149v-33h1161v360h-25l-270 -327h-312l-67 76v380h147l187 -206h24v458h-24l-185 -213h-149v305l76 78h323l238 -323h33l-15 356h-1142v-33h137l94 -84v-710zM489 1319l227 -256h93l-168 256h-152z" />
<glyph unicode="&#xc9;" d="M297 117l-82 -84h-149v-33h1161v360h-25l-270 -327h-312l-67 76v380h147l187 -206h24v458h-24l-185 -213h-149v305l76 78h323l238 -323h33l-15 356h-1142v-33h137l94 -84v-710zM588 1063h93l227 256h-152z" />
<glyph unicode="&#xca;" d="M297 117l-82 -84h-149v-33h1161v360h-25l-270 -327h-312l-67 76v380h147l187 -206h24v458h-24l-185 -213h-149v305l76 78h323l238 -323h33l-15 356h-1142v-33h137l94 -84v-710zM421 1063h96l178 166v0l176 -166h96l-196 256h-154z" />
<glyph unicode="&#xcb;" d="M297 117l-82 -84h-149v-33h1161v360h-25l-270 -327h-312l-67 76v380h147l187 -206h24v458h-24l-185 -213h-149v305l76 78h323l238 -323h33l-15 356h-1142v-33h137l94 -84v-710zM794 1190q2 -84 90 -88q39 0 64 27q24 24 24 61q0 39 -24 64q-25 26 -64 26q-88 -4 -90 -90 v0zM417 1190q3 -84 91 -88q38 0 63 27q25 24 25 61q0 39 -25 64q-25 26 -63 26q-88 -4 -91 -90v0z" />
<glyph unicode="&#xcc;" horiz-adv-x="909" d="M322 117l-82 -84h-144v-33h717v33h-143l-82 84v710l94 84h131v33h-717v-33h131l95 -84v-710zM253 1319l227 -256h93l-168 256h-152z" />
<glyph unicode="&#xcd;" horiz-adv-x="909" d="M322 117l-82 -84h-144v-33h717v33h-143l-82 84v710l94 84h131v33h-717v-33h131l95 -84v-710zM352 1063h93l227 256h-152z" />
<glyph unicode="&#xce;" horiz-adv-x="909" d="M322 117l-82 -84h-144v-33h717v33h-143l-82 84v710l94 84h131v33h-717v-33h131l95 -84v-710zM185 1063h96l178 166v0l176 -166h96l-196 256h-154z" />
<glyph unicode="&#xcf;" horiz-adv-x="909" d="M322 117l-82 -84h-144v-33h717v33h-143l-82 84v710l94 84h131v33h-717v-33h131l95 -84v-710zM558 1190q2 -84 90 -88q39 0 64 27q24 24 24 61q0 39 -24 64q-25 26 -64 26q-88 -4 -90 -90v0zM181 1190q3 -84 91 -88q38 0 63 27q25 24 25 61q0 39 -25 64q-25 26 -63 26 q-88 -4 -91 -90v0z" />
<glyph unicode="&#xd0;" horiz-adv-x="1479" d="M297 125l-74 -92h-139v-33h747q234 2 375 135q139 129 141 344q-2 252 -163 361q-160 106 -414 104h-686v-33h137l76 -80v-303h-213v-39h213v-364zM563 831l74 80h160q92 0 149 -39q55 -41 82 -106q31 -66 39 -141q6 -78 6 -154q0 -72 -4 -145q-6 -78 -31 -144 q-22 -65 -78 -106q-53 -43 -145 -43h-178l-74 86v370h309v39h-309v303z" />
<glyph unicode="&#xd1;" horiz-adv-x="1593" d="M63 0h586v33h-123l-155 182v571h10l674 -786h211v729l161 182h103v33h-568v-33h132l129 -182v-530v0l-637 745h-523v-33h179q32 0 51 -10q18 -10 24 -27q11 -32 11 -61v-598l-150 -182h-115v-33zM609 1092q4 20 25 45q20 22 69 24q31 -2 103 -20q35 -6 63 -14 q27 -9 39 -9q10 0 37 5q27 4 57 18q33 14 58 51q22 37 30 96h-73q-17 -32 -33 -49q-18 -16 -66 -16q-36 0 -98 22q-59 19 -108 21q-64 -2 -115 -49t-62 -125h74z" />
<glyph unicode="&#xd2;" horiz-adv-x="1593" d="M797 969q-273 -2 -463 -136q-199 -131 -203 -362q4 -227 203 -358q190 -136 463 -138q274 2 467 138q194 131 198 358q-4 231 -198 362q-193 134 -467 136v0zM797 936q131 0 211 -39q79 -39 118 -104q39 -66 52 -148q10 -84 10 -174q0 -86 -10 -168q-13 -82 -52 -147 q-39 -66 -118 -105q-80 -43 -211 -43t-207 43q-80 39 -119 105q-39 65 -51 147q-15 82 -15 168q0 90 15 174q12 82 51 148q39 65 119 104q76 39 207 39v0zM605 1319l227 -256h93l-168 256h-152z" />
<glyph unicode="&#xd3;" horiz-adv-x="1593" d="M797 969q-273 -2 -463 -136q-199 -131 -203 -362q4 -227 203 -358q190 -136 463 -138q274 2 467 138q194 131 198 358q-4 231 -198 362q-193 134 -467 136v0zM797 936q131 0 211 -39q79 -39 118 -104q39 -66 52 -148q10 -84 10 -174q0 -86 -10 -168q-13 -82 -52 -147 q-39 -66 -118 -105q-80 -43 -211 -43t-207 43q-80 39 -119 105q-39 65 -51 147q-15 82 -15 168q0 90 15 174q12 82 51 148q39 65 119 104q76 39 207 39v0zM703 1063h93l227 256h-152z" />
<glyph unicode="&#xd4;" horiz-adv-x="1593" d="M797 969q-273 -2 -463 -136q-199 -131 -203 -362q4 -227 203 -358q190 -136 463 -138q274 2 467 138q194 131 198 358q-4 231 -198 362q-193 134 -467 136v0zM797 936q131 0 211 -39q79 -39 118 -104q39 -66 52 -148q10 -84 10 -174q0 -86 -10 -168q-13 -82 -52 -147 q-39 -66 -118 -105q-80 -43 -211 -43t-207 43q-80 39 -119 105q-39 65 -51 147q-15 82 -15 168q0 90 15 174q12 82 51 148q39 65 119 104q76 39 207 39v0zM536 1063h96l178 166v0l176 -166h96l-196 256h-154z" />
<glyph unicode="&#xd5;" horiz-adv-x="1593" d="M797 969q-273 -2 -463 -136q-199 -131 -203 -362q4 -227 203 -358q190 -136 463 -138q274 2 467 138q194 131 198 358q-4 231 -198 362q-193 134 -467 136v0zM797 936q131 0 211 -39q79 -39 118 -104q39 -66 52 -148q10 -84 10 -174q0 -86 -10 -168q-13 -82 -52 -147 q-39 -66 -118 -105q-80 -43 -211 -43t-207 43q-80 39 -119 105q-39 65 -51 147q-15 82 -15 168q0 90 15 174q12 82 51 148q39 65 119 104q76 39 207 39v0zM606 1092q4 20 25 45q20 22 69 24q31 -2 103 -20q35 -6 63 -14q27 -9 39 -9q10 0 37 5q27 4 57 18q33 14 58 51 q22 37 30 96h-73q-17 -32 -33 -49q-18 -16 -66 -16q-36 0 -98 22q-59 19 -108 21q-64 -2 -115 -49t-62 -125h74z" />
<glyph unicode="&#xd6;" horiz-adv-x="1593" d="M797 969q-273 -2 -463 -136q-199 -131 -203 -362q4 -227 203 -358q190 -136 463 -138q274 2 467 138q194 131 198 358q-4 231 -198 362q-193 134 -467 136v0zM797 936q131 0 211 -39q79 -39 118 -104q39 -66 52 -148q10 -84 10 -174q0 -86 -10 -168q-13 -82 -52 -147 q-39 -66 -118 -105q-80 -43 -211 -43t-207 43q-80 39 -119 105q-39 65 -51 147q-15 82 -15 168q0 90 15 174q12 82 51 148q39 65 119 104q76 39 207 39v0zM909 1190q2 -84 90 -88q39 0 64 27q24 24 24 61q0 39 -24 64q-25 26 -64 26q-88 -4 -90 -90v0zM532 1190 q3 -84 91 -88q38 0 63 27q25 24 25 61q0 39 -25 64q-25 26 -63 26q-88 -4 -91 -90v0z" />
<glyph unicode="&#xd7;" horiz-adv-x="979" d="M217 752l-86 -84l272 -275l-272 -274l86 -84v0l272 272v0l273 -272v0l86 84l-273 274l273 275l-86 84v0l-273 -273v0l-272 273v0z" />
<glyph unicode="&#xd8;" horiz-adv-x="1593" d="M502 111v0q-60 67 -78 163q-8 48 -12 99q-2 24 -2 49q-5 24 -5 49q0 90 15 174q12 82 51 148q39 65 119 104q76 39 207 39q157 0 239 -57zM1100 825v0q57 -65 73 -157q15 -95 15 -197q0 -86 -10 -168q-13 -82 -52 -147q-39 -66 -118 -105q-80 -43 -211 -43 q-152 0 -232 53zM276 -215h99l159 231q123 -41 263 -41q274 2 467 138q194 131 198 358q-2 145 -86 256q-84 109 -227 170l153 223h-98l-135 -192q-125 39 -272 41q-273 -2 -463 -136q-199 -131 -203 -362q2 -145 92 -254q88 -111 234 -172z" />
<glyph unicode="&#xd9;" horiz-adv-x="1593" d="M1276 741l155 170h119v33h-588v-33h123l154 -170v-475q0 -86 -39 -137t-98 -78q-60 -26 -119 -35q-64 -8 -111 -8q-88 0 -147 23q-59 22 -96 53q-33 33 -49 68q-17 34 -17 65v610l76 84h147v33h-716v-33h141l86 -84v-555q0 -94 55 -153q53 -60 135 -90q82 -29 174 -41 q91 -13 172 -13q441 -2 443 306v460zM606 1319l227 -256h93l-168 256h-152z" />
<glyph unicode="&#xda;" horiz-adv-x="1593" d="M1276 741l155 170h119v33h-588v-33h123l154 -170v-475q0 -86 -39 -137t-98 -78q-60 -26 -119 -35q-64 -8 -111 -8q-88 0 -147 23q-59 22 -96 53q-33 33 -49 68q-17 34 -17 65v610l76 84h147v33h-716v-33h141l86 -84v-555q0 -94 55 -153q53 -60 135 -90q82 -29 174 -41 q91 -13 172 -13q441 -2 443 306v460zM705 1063h93l227 256h-152z" />
<glyph unicode="&#xdb;" horiz-adv-x="1593" d="M1276 741l155 170h119v33h-588v-33h123l154 -170v-475q0 -86 -39 -137t-98 -78q-60 -26 -119 -35q-64 -8 -111 -8q-88 0 -147 23q-59 22 -96 53q-33 33 -49 68q-17 34 -17 65v610l76 84h147v33h-716v-33h141l86 -84v-555q0 -94 55 -153q53 -60 135 -90q82 -29 174 -41 q91 -13 172 -13q441 -2 443 306v460zM540 1063h96l178 166v0l176 -166h96l-196 256h-154z" />
<glyph unicode="&#xdc;" horiz-adv-x="1593" d="M1276 741l155 170h119v33h-588v-33h123l154 -170v-475q0 -86 -39 -137t-98 -78q-60 -26 -119 -35q-64 -8 -111 -8q-88 0 -147 23q-59 22 -96 53q-33 33 -49 68q-17 34 -17 65v610l76 84h147v33h-716v-33h141l86 -84v-555q0 -94 55 -153q53 -60 135 -90q82 -29 174 -41 q91 -13 172 -13q441 -2 443 306v460zM912 1190q2 -84 90 -88q39 0 64 27q24 24 24 61q0 39 -24 64q-25 26 -64 26q-88 -4 -90 -90v0zM535 1190q3 -84 91 -88q38 0 63 27q25 24 25 61q0 39 -25 64q-25 26 -63 26q-88 -4 -91 -90v0z" />
<glyph unicode="&#xdd;" d="M543 117l-82 -84h-154v-33h744v33h-160l-82 84v323l199 295l210 176h107v33h-545v-33h70l129 -143l-189 -289q-6 -10 -16 -10q-6 0 -10 10l-201 361l57 71h56v33h-635v-33h143l86 -80l273 -456v-258zM587 1063h93l227 256h-152z" />
<glyph unicode="&#xde;" d="M563 707h250q23 0 57 -3q31 -4 66 -22t61 -62q23 -45 23 -124q0 -35 -4 -72q-6 -41 -33 -76q-27 -33 -80 -55q-57 -25 -151 -25h-189v439zM297 123l-84 -90h-129v-33h719v33h-158l-82 82v114h270q140 -2 297 52q76 30 123 81q45 52 47 134q-2 84 -49 135q-47 49 -121 73 q-71 27 -151 35q-78 6 -139 6h-277v86l68 80h172v33h-719v-33h119l94 -92v-696z" />
<glyph unicode="&#xdf;" horiz-adv-x="2277" d="M178 -25h25l100 88v0q47 -26 129 -55q80 -31 203 -33q26 0 84 5q55 6 114 28q62 25 107 78q41 53 43 147q0 89 -37 144q-37 53 -100 80q-62 26 -137 39q-74 12 -150 16q-125 10 -201 35q-77 24 -79 100q0 53 53 92t172 39q98 0 166 -18q67 -19 112 -51q45 -31 76 -68 q27 -37 45 -78h25v242h-25l-82 -78v0q-47 31 -119 57q-73 27 -198 27q-94 0 -162 -23q-66 -22 -109 -61q-79 -78 -77 -172q0 -86 47 -137q45 -51 106 -78q64 -27 121 -35q57 -12 88 -14q219 -15 297 -35q72 -23 70 -96q-2 -76 -74 -113q-72 -39 -162 -39q-82 -4 -215 41 q-63 25 -123 76q-61 49 -108 133h-25v-283zM1317 -25h24l101 88v0q47 -26 129 -55q80 -31 202 -33q27 0 84 5q56 6 115 28q62 25 107 78q41 53 43 147q0 89 -37 144q-37 53 -101 80q-61 26 -137 39q-74 12 -149 16q-125 10 -201 35q-78 24 -80 100q0 53 53 92q54 39 172 39 q99 0 166 -18q68 -19 113 -51q45 -31 76 -68q26 -37 45 -78h24v242h-24l-82 -78v0q-47 31 -119 57q-74 27 -199 27q-94 0 -161 -23q-66 -22 -109 -61q-80 -78 -78 -172q0 -86 47 -137q45 -51 107 -78q63 -27 121 -35q57 -12 88 -14q219 -15 297 -35q71 -23 69 -96 q-2 -76 -73 -113q-72 -39 -162 -39q-82 -4 -215 41q-64 25 -123 76q-62 49 -109 133h-24v-283z" />
<glyph unicode="&#xe0;" horiz-adv-x="1251" d="M369 317l139 265q6 10 16 12q13 -2 15 -12l135 -265h-305zM37 0h387v33h-86l-64 114l74 138h344l105 -183l-37 -69h-142v-33h596v33q-51 -2 -98 10q-47 10 -80 61l-395 697h-55l-334 -611q-25 -49 -49 -75q-27 -31 -56 -45q-51 -29 -110 -37v-33zM430 1161l227 -256h93 l-168 256h-152z" />
<glyph unicode="&#xe1;" horiz-adv-x="1251" d="M369 317l139 265q6 10 16 12q13 -2 15 -12l135 -265h-305zM37 0h387v33h-86l-64 114l74 138h344l105 -183l-37 -69h-142v-33h596v33q-51 -2 -98 10q-47 10 -80 61l-395 697h-55l-334 -611q-25 -49 -49 -75q-27 -31 -56 -45q-51 -29 -110 -37v-33zM529 905h93l227 256 h-152z" />
<glyph unicode="&#xe2;" horiz-adv-x="1251" d="M369 317l139 265q6 10 16 12q13 -2 15 -12l135 -265h-305zM37 0h387v33h-86l-64 114l74 138h344l105 -183l-37 -69h-142v-33h596v33q-51 -2 -98 10q-47 10 -80 61l-395 697h-55l-334 -611q-25 -49 -49 -75q-27 -31 -56 -45q-51 -29 -110 -37v-33zM361 905h96l178 166v0 l176 -166h96l-196 256h-154z" />
<glyph unicode="&#xe3;" horiz-adv-x="1251" d="M369 317l139 265q6 10 16 12q13 -2 15 -12l135 -265h-305zM37 0h387v33h-86l-64 114l74 138h344l105 -183l-37 -69h-142v-33h596v33q-51 -2 -98 10q-47 10 -80 61l-395 697h-55l-334 -611q-25 -49 -49 -75q-27 -31 -56 -45q-51 -29 -110 -37v-33zM431 934q4 20 25 45 q20 22 69 24q31 -2 103 -20q35 -6 63 -14q27 -9 39 -9q10 0 37 5q27 4 57 18q33 14 58 51q22 37 30 96h-73q-17 -32 -33 -49q-18 -16 -66 -16q-36 0 -98 22q-59 19 -108 21q-64 -2 -115 -49t-62 -125h74z" />
<glyph unicode="&#xe4;" horiz-adv-x="1251" d="M369 317l139 265q6 10 16 12q13 -2 15 -12l135 -265h-305zM37 0h387v33h-86l-64 114l74 138h344l105 -183l-37 -69h-142v-33h596v33q-51 -2 -98 10q-47 10 -80 61l-395 697h-55l-334 -611q-25 -49 -49 -75q-27 -31 -56 -45q-51 -29 -110 -37v-33zM734 1032q2 -84 90 -88 q39 0 64 27q24 24 24 61q0 39 -24 64q-25 26 -64 26q-88 -4 -90 -90v0zM357 1032q3 -84 91 -88q38 0 63 27q25 24 25 61q0 39 -25 64q-25 26 -63 26q-88 -4 -91 -90v0z" />
<glyph unicode="&#xe5;" horiz-adv-x="1251" d="M369 317l139 265q6 10 16 12q13 -2 15 -12l135 -265h-305zM37 0h387v33h-86l-64 114l74 138h344l105 -183l-37 -69h-142v-33h596v33q-51 -2 -98 10q-47 10 -80 61l-395 697h-55l-334 -611q-25 -49 -49 -75q-27 -31 -56 -45q-51 -29 -110 -37v-33zM444 1053q0 -70 51 -117 q47 -51 119 -51q74 0 121 51q45 47 47 117q-2 73 -47 120q-47 45 -121 48q-72 -3 -119 -48q-51 -47 -51 -120v0zM505 1053q0 45 33 75q33 29 76 31q45 -2 76 -31q28 -30 30 -75q-2 -45 -30 -74q-31 -33 -76 -33q-43 0 -76 33q-33 29 -33 74v0z" />
<glyph unicode="&#xe6;" horiz-adv-x="1821" d="M1669 786h-1194v-32q74 0 113 -9q37 -12 37 -57q0 -29 -19 -51l-448 -543q-25 -26 -58 -43q-30 -18 -59 -18v-33h360v33h-100l-47 108l113 144h442v-181l-80 -71h-115v-33h1078l16 346h-33l-221 -313h-338l-72 73v267h187l116 -187h33v404h-33l-114 -185h-189v273l72 76 h369l151 -252h33v284zM809 317h-412l361 437h51v-437z" />
<glyph unicode="&#xe7;" horiz-adv-x="1175" d="M389 -348q102 -51 217 -53q70 0 139 34q35 19 56 46q18 26 18 63q0 47 -37 90q-39 45 -123 45h-51l27 98q131 9 217 56q86 45 135 104q51 62 76 113q22 49 24 63h-32q-33 -92 -86 -149q-54 -62 -113 -94q-59 -33 -113 -45q-55 -15 -94 -15q-112 0 -176 47q-65 45 -94 109 q-27 65 -33 129q-8 63 -6 102q-2 33 6 96q6 62 33 127q26 68 88 113q61 45 170 47q110 2 219 -67q109 -70 162 -252h33v352h-33l-119 -90v0q-51 39 -117 63q-65 27 -182 27q-186 -2 -340 -115q-74 -55 -119 -135q-47 -80 -47 -178q2 -156 135 -270q129 -119 355 -138 l-50 -163l13 6q33 6 45 4q16 2 65 -10q23 -7 37 -23q15 -18 15 -49q0 -29 -27 -55q-29 -29 -96 -31q-45 2 -92 18q-46 17 -89 39z" />
<glyph unicode="&#xe8;" horiz-adv-x="1251" d="M262 106l-67 -73h-144v-33h1071l17 346h-33l-221 -313h-316l-71 73v267h163l117 -187h33v404h-33l-114 -185h-166v273l71 76h346l152 -252h33v284h-1049v-32h144l67 -74v-574zM430 1161l227 -256h93l-168 256h-152z" />
<glyph unicode="&#xe9;" horiz-adv-x="1251" d="M262 106l-67 -73h-144v-33h1071l17 346h-33l-221 -313h-316l-71 73v267h163l117 -187h33v404h-33l-114 -185h-166v273l71 76h346l152 -252h33v284h-1049v-32h144l67 -74v-574zM529 905h93l227 256h-152z" />
<glyph unicode="&#xea;" horiz-adv-x="1251" d="M262 106l-67 -73h-144v-33h1071l17 346h-33l-221 -313h-316l-71 73v267h163l117 -187h33v404h-33l-114 -185h-166v273l71 76h346l152 -252h33v284h-1049v-32h144l67 -74v-574zM361 905h96l178 166v0l176 -166h96l-196 256h-154z" />
<glyph unicode="&#xeb;" horiz-adv-x="1251" d="M262 106l-67 -73h-144v-33h1071l17 346h-33l-221 -313h-316l-71 73v267h163l117 -187h33v404h-33l-114 -185h-166v273l71 76h346l152 -252h33v284h-1049v-32h144l67 -74v-574zM734 1032q2 -84 90 -88q39 0 64 27q24 24 24 61q0 39 -24 64q-25 26 -64 26q-88 -4 -90 -90v0 zM357 1032q3 -84 91 -88q38 0 63 27q25 24 25 61q0 39 -25 64q-25 26 -63 26q-88 -4 -91 -90v0z" />
<glyph unicode="&#xec;" horiz-adv-x="797" d="M76 0h645v33h-129l-80 73v574l80 74h129v32h-645v-32h141l68 -74v-574l-68 -73h-141v-33zM195 1161l227 -256h93l-168 256h-152z" />
<glyph unicode="&#xed;" horiz-adv-x="797" d="M76 0h645v33h-129l-80 73v574l80 74h129v32h-645v-32h141l68 -74v-574l-68 -73h-141v-33zM294 905h93l227 256h-152z" />
<glyph unicode="&#xee;" horiz-adv-x="797" d="M76 0h645v33h-129l-80 73v574l80 74h129v32h-645v-32h141l68 -74v-574l-68 -73h-141v-33zM126 905h96l178 166v0l176 -166h96l-196 256h-154z" />
<glyph unicode="&#xef;" horiz-adv-x="797" d="M76 0h645v33h-129l-80 73v574l80 74h129v32h-645v-32h141l68 -74v-574l-68 -73h-141v-33zM499 1032q2 -84 90 -88q39 0 64 27q24 24 24 61q0 39 -24 64q-25 26 -64 26q-88 -4 -90 -90v0zM122 1032q3 -84 91 -88q38 0 63 27q25 24 25 61q0 39 -25 64q-25 26 -63 26 q-88 -4 -91 -90v0z" />
<glyph unicode="&#xf0;" d="M276 104l-73 -71h-152v-33h649q262 2 410 115q147 108 149 276q0 64 -20 131q-23 70 -84 129q-59 60 -170 99q-111 34 -285 36h-649v-32h156l69 -76v-252h-200v-33h200v-289zM494 393h313v33h-313v252l75 76h127q111 0 174 -33q64 -35 92 -88q29 -53 37 -117 q4 -61 4 -125q0 -59 -4 -121q-8 -63 -37 -116q-28 -54 -92 -84q-63 -37 -174 -37h-133l-69 76v284z" />
<glyph unicode="&#xf1;" d="M74 0h489v33h-137l-100 129v452v0l702 -614h57v633l99 121h108v32h-477v-32h129l96 -123v-350v0l-571 505h-395v-32h139q49 -2 59 -37q9 -35 9 -60v-501l-95 -123h-112v-33zM491 934q4 20 25 45q20 22 69 24q31 -2 103 -20q35 -6 63 -14q27 -9 39 -9q10 0 37 5 q27 4 57 18q33 14 58 51q22 37 30 96h-73q-17 -32 -33 -49q-18 -16 -66 -16q-36 0 -98 22q-59 19 -108 21q-64 -2 -115 -49t-62 -125h74z" />
<glyph unicode="&#xf2;" horiz-adv-x="1253" d="M1159 393q-4 195 -168 307q-160 109 -364 111q-201 0 -361 -107q-168 -108 -172 -311q4 -203 172 -309q160 -109 361 -109q204 2 364 113q164 111 168 305v0zM913 393q0 -53 -4 -117q-4 -65 -30 -127q-27 -59 -84 -98q-62 -43 -168 -43q-107 0 -164 43q-60 39 -86 98 q-27 62 -31 127q-8 64 -6 117q-2 58 6 123q4 66 31 125q26 59 86 98q57 39 164 39q106 0 168 -39q57 -41 84 -100q26 -59 30 -125t4 -121v0zM431 1161l227 -256h93l-168 256h-152z" />
<glyph unicode="&#xf3;" horiz-adv-x="1253" d="M1159 393q-4 195 -168 307q-160 109 -364 111q-201 0 -361 -107q-168 -108 -172 -311q4 -203 172 -309q160 -109 361 -109q204 2 364 113q164 111 168 305v0zM913 393q0 -53 -4 -117q-4 -65 -30 -127q-27 -59 -84 -98q-62 -43 -168 -43q-107 0 -164 43q-60 39 -86 98 q-27 62 -31 127q-8 64 -6 117q-2 58 6 123q4 66 31 125q26 59 86 98q57 39 164 39q106 0 168 -39q57 -41 84 -100q26 -59 30 -125t4 -121v0zM529 905h93l227 256h-152z" />
<glyph unicode="&#xf4;" horiz-adv-x="1253" d="M1159 393q-4 195 -168 307q-160 109 -364 111q-201 0 -361 -107q-168 -108 -172 -311q4 -203 172 -309q160 -109 361 -109q204 2 364 113q164 111 168 305v0zM913 393q0 -53 -4 -117q-4 -65 -30 -127q-27 -59 -84 -98q-62 -43 -168 -43q-107 0 -164 43q-60 39 -86 98 q-27 62 -31 127q-8 64 -6 117q-2 58 6 123q4 66 31 125q26 59 86 98q57 39 164 39q106 0 168 -39q57 -41 84 -100q26 -59 30 -125t4 -121v0zM362 905h96l178 166v0l176 -166h96l-196 256h-154z" />
<glyph unicode="&#xf5;" horiz-adv-x="1253" d="M1159 393q-4 195 -168 307q-160 109 -364 111q-201 0 -361 -107q-168 -108 -172 -311q4 -203 172 -309q160 -109 361 -109q204 2 364 113q164 111 168 305v0zM913 393q0 -53 -4 -117q-4 -65 -30 -127q-27 -59 -84 -98q-62 -43 -168 -43q-107 0 -164 43q-60 39 -86 98 q-27 62 -31 127q-8 64 -6 117q-2 58 6 123q4 66 31 125q26 59 86 98q57 39 164 39q106 0 168 -39q57 -41 84 -100q26 -59 30 -125t4 -121v0zM432 934q4 20 25 45q20 22 69 24q31 -2 103 -20q35 -6 63 -14q27 -9 39 -9q10 0 37 5q27 4 57 18q33 14 58 51q22 37 30 96h-73 q-17 -32 -33 -49q-18 -16 -66 -16q-36 0 -98 22q-59 19 -108 21q-64 -2 -115 -49t-62 -125h74z" />
<glyph unicode="&#xf6;" horiz-adv-x="1253" d="M1159 393q-4 195 -168 307q-160 109 -364 111q-201 0 -361 -107q-168 -108 -172 -311q4 -203 172 -309q160 -109 361 -109q204 2 364 113q164 111 168 305v0zM913 393q0 -53 -4 -117q-4 -65 -30 -127q-27 -59 -84 -98q-62 -43 -168 -43q-107 0 -164 43q-60 39 -86 98 q-27 62 -31 127q-8 64 -6 117q-2 58 6 123q4 66 31 125q26 59 86 98q57 39 164 39q106 0 168 -39q57 -41 84 -100q26 -59 30 -125t4 -121v0zM735 1032q2 -84 90 -88q39 0 64 27q24 24 24 61q0 39 -24 64q-25 26 -64 26q-88 -4 -90 -90v0zM358 1032q3 -84 91 -88q38 0 63 27 q25 24 25 61q0 39 -25 64q-25 26 -63 26q-88 -4 -91 -90v0z" />
<glyph unicode="&#xf7;" horiz-adv-x="979" d="M96 326h787v135h-787v-135zM367 688q0 -51 36 -86q35 -37 86 -37q54 0 88 37q35 35 35 86q0 53 -35 88q-34 35 -88 35q-51 0 -86 -35q-36 -35 -36 -88v0zM367 98q0 -51 36 -86q35 -35 86 -37q54 2 88 37q35 35 35 86q0 54 -35 88q-34 35 -88 35q-51 0 -86 -35 q-36 -34 -36 -88v0z" />
<glyph unicode="&#xf8;" horiz-adv-x="1253" d="M860 668v0q39 -64 47 -136q6 -75 6 -139q0 -53 -4 -117q-4 -65 -30 -127q-27 -59 -84 -98q-62 -43 -168 -43q-129 0 -187 58zM391 125v0q-35 63 -43 137q-10 72 -8 131q-2 58 6 123q4 66 31 125q26 59 86 98q57 39 164 39q123 -2 182 -55zM154 -215h90l159 229 q107 -39 224 -39q204 2 364 113q164 111 168 305q-2 121 -67 211q-70 90 -179 139l164 234h-90l-143 -205q-105 39 -217 39q-201 0 -361 -107q-168 -108 -172 -311q0 -123 70 -209q67 -88 170 -141z" />
<glyph unicode="&#xf9;" d="M248 260q-2 -295 424 -285q192 0 309 72q115 70 117 254v311l127 142h90v32h-512v-32h137l119 -134v-309q0 -303 -355 -297q-22 0 -59 4q-37 2 -76 15q-37 14 -63 45q-31 31 -31 82v522l74 72h129v32h-627v-32h129l68 -76v-418zM488 1161l227 -256h93l-168 256h-152z" />
<glyph unicode="&#xfa;" d="M248 260q-2 -295 424 -285q192 0 309 72q115 70 117 254v311l127 142h90v32h-512v-32h137l119 -134v-309q0 -303 -355 -297q-22 0 -59 4q-37 2 -76 15q-37 14 -63 45q-31 31 -31 82v522l74 72h129v32h-627v-32h129l68 -76v-418zM587 905h93l227 256h-152z" />
<glyph unicode="&#xfb;" d="M248 260q-2 -295 424 -285q192 0 309 72q115 70 117 254v311l127 142h90v32h-512v-32h137l119 -134v-309q0 -303 -355 -297q-22 0 -59 4q-37 2 -76 15q-37 14 -63 45q-31 31 -31 82v522l74 72h129v32h-627v-32h129l68 -76v-418zM420 905h96l178 166v0l176 -166h96 l-196 256h-154z" />
<glyph unicode="&#xfc;" d="M248 260q-2 -295 424 -285q192 0 309 72q115 70 117 254v311l127 142h90v32h-512v-32h137l119 -134v-309q0 -303 -355 -297q-22 0 -59 4q-37 2 -76 15q-37 14 -63 45q-31 31 -31 82v522l74 72h129v32h-627v-32h129l68 -76v-418zM793 1032q2 -84 90 -88q39 0 64 27 q24 24 24 61q0 39 -24 64q-25 26 -64 26q-88 -4 -90 -90v0zM416 1032q3 -84 91 -88q38 0 63 27q25 24 25 61q0 39 -25 64q-25 26 -63 26q-88 -4 -91 -90v0z" />
<glyph unicode="&#xfd;" horiz-adv-x="1251" d="M86 786v-32h92l74 -80l244 -412v-147l-68 -82h-137v-33h639v33h-131l-76 76v217l209 286l166 142h98v32h-461v-32h68l102 -109l-203 -274q-4 -11 -14 -11q-8 0 -14 13l-178 305l43 76h63v32h-516zM527 905h93l227 256h-152z" />
<glyph unicode="&#xfe;" horiz-adv-x="1251" d="M283 106l-64 -73h-143v-33h637v33h-131l-72 73v93h254q162 -2 285 47q122 49 126 178q0 10 -4 43q-6 31 -39 65q-32 35 -104 62q-74 26 -205 26h-313v64l67 70h136v32h-637v-32h143l64 -76v-572zM510 588h276q35 2 97 -25q28 -16 47 -53q18 -37 18 -98q-2 -90 -55 -133 q-53 -48 -146 -48h-237v357z" />
<glyph unicode="&#xff;" horiz-adv-x="1251" d="M86 786v-32h92l74 -80l244 -412v-147l-68 -82h-137v-33h639v33h-131l-76 76v217l209 286l166 142h98v32h-461v-32h68l102 -109l-203 -274q-4 -11 -14 -11q-8 0 -14 13l-178 305l43 76h63v32h-516zM733 1032q2 -84 90 -88q39 0 64 27q24 24 24 61q0 39 -24 64 q-25 26 -64 26q-88 -4 -90 -90v0zM356 1032q3 -84 91 -88q38 0 63 27q25 24 25 61q0 39 -25 64q-25 26 -63 26q-88 -4 -91 -90v0z" />
<glyph unicode="&#x131;" horiz-adv-x="797" d="M76 0h645v33h-129l-80 73v574l80 74h129v32h-645v-32h141l68 -74v-574l-68 -73h-141v-33z" />
<glyph unicode="&#x141;" d="M324 381l-236 -143v-56v0l236 144v0v-220l-60 -73h-198v-33h1148v487h-32l-242 -454h-270l-80 73v381l375 230v55v0l-375 -229v0v297l82 71h168v33h-774v-33h186l72 -71v-459z" />
<glyph unicode="&#x142;" horiz-adv-x="1251" d="M256 307l-205 -117v-55v0l205 117v0v-146l-68 -73h-137v-33h1106v397h-33l-233 -364h-328l-80 73v277l361 205v55v0l-361 -205v0v242l80 74h154v32h-666v-32h137l68 -74v-373z" />
<glyph unicode="&#x152;" horiz-adv-x="2156" d="M1702 741h-25l-184 -213h-150v305l76 78h324l237 -323h33l-14 356h-1276q-234 2 -408 -100q-180 -107 -184 -371q0 -174 70 -270q63 -99 164 -144q100 -41 206 -51q105 -8 187 -8h1259v360h-24l-271 -327h-311l-68 76v380h148l186 -206h25v458zM741 911q125 -2 197 -43 q70 -43 98 -112q29 -68 37 -144q4 -75 4 -139q0 -63 -4 -135q-8 -76 -37 -146q-28 -67 -98 -112q-72 -47 -197 -47q-123 0 -192 47q-70 45 -101 112q-28 70 -36 146q-9 72 -7 135q-2 64 7 139q8 76 36 144q31 69 101 112q69 41 192 43v0z" />
<glyph unicode="&#x153;" horiz-adv-x="1976" d="M926 391q0 -74 -4 -137q-5 -66 -31 -115q-27 -49 -86 -78q-64 -28 -172 -28q-96 0 -154 26q-59 27 -90 70t-39 104q-10 60 -10 129q0 72 8 142q8 69 35 125q27 57 84 92q55 33 149 33q117 0 183 -21q63 -24 90 -72q26 -45 33 -112q4 -68 4 -158v0zM1825 786h-1215 q-198 0 -352 -94q-160 -98 -164 -317q0 -45 21 -105q16 -61 67 -125q51 -59 150 -102q94 -43 248 -43h1267l17 346h-33l-221 -313h-377l-72 73v267h203l117 -187h32v404h-32l-115 -185h-205v273l72 76h407l152 -252h33v284z" />
<glyph unicode="&#x160;" d="M205 -25h28l121 97v0q19 -13 47 -29q27 -14 70 -31q80 -35 244 -37q188 0 329 70q142 68 146 240q0 104 -41 168q-41 61 -109 94q-65 33 -143 47q-82 12 -160 16q-190 17 -297 49q-112 33 -112 119q0 49 30 82q27 31 70 47q23 10 47 17q21 6 45 8q47 4 92 4 q228 -4 340 -88q58 -39 97 -86q36 -47 61 -94h29v301h-29l-107 -93q-43 25 -143 58q-102 33 -254 35q-119 0 -201 -25q-81 -29 -133 -72q-49 -43 -71 -96q-25 -53 -25 -108q2 -170 139 -240q131 -70 334 -86q60 -4 129 -10q70 -8 131 -25q64 -14 105 -45t41 -80 q-2 -86 -93 -129q-92 -45 -229 -45q-123 0 -205 33q-84 29 -139 76q-53 47 -90 104q-39 53 -66 105h-28v-351zM612 1063h154l196 256h-96l-176 -166v0l-178 166h-96z" />
<glyph unicode="&#x161;" horiz-adv-x="1139" d="M178 -25h25l100 88v0q47 -26 129 -55q80 -31 203 -33q26 0 84 5q55 6 114 28q62 25 107 78q41 53 43 147q0 89 -37 144q-37 53 -100 80q-62 26 -137 39q-74 12 -150 16q-125 10 -201 35q-77 24 -79 100q0 53 53 92t172 39q98 0 166 -18q67 -19 112 -51q45 -31 76 -68 q27 -37 45 -78h25v242h-25l-82 -78v0q-47 31 -119 57q-73 27 -198 27q-94 0 -162 -23q-66 -22 -109 -61q-79 -78 -77 -172q0 -86 47 -137q45 -51 106 -78q64 -27 121 -35q57 -12 88 -14q219 -15 297 -35q72 -23 70 -96q-2 -76 -74 -113q-72 -39 -162 -39q-82 -4 -215 41 q-63 25 -123 76q-61 49 -108 133h-25v-283zM495 905h154l196 256h-96l-176 -166v0l-178 166h-96z" />
<glyph unicode="&#x178;" d="M543 117l-82 -84h-154v-33h744v33h-160l-82 84v323l199 295l210 176h107v33h-545v-33h70l129 -143l-189 -289q-6 -10 -16 -10q-6 0 -10 10l-201 361l57 71h56v33h-635v-33h143l86 -80l273 -456v-258zM795 1190q2 -84 90 -88q39 0 64 27q24 24 24 61q0 39 -24 64 q-25 26 -64 26q-88 -4 -90 -90v0zM418 1190q3 -84 91 -88q38 0 63 27q25 24 25 61q0 39 -25 64q-25 26 -63 26q-88 -4 -91 -90v0z" />
<glyph unicode="&#x192;" horiz-adv-x="1253" d="M309 506h203q8 -211 14 -416q2 -80 -14 -158q-21 -81 -113 -86q-24 0 -32 11q-13 10 -13 18q0 12 8 21q9 8 15 14q10 8 16 20q4 13 4 33q0 17 -14 55q-21 37 -86 39q-45 -2 -74 -30q-31 -31 -31 -78q5 -88 82 -117q35 -16 68 -22q33 -9 51 -9q133 2 209 72q76 66 107 158 q32 92 41 176q4 80 4 112q-2 89 -7 187h197v61h-197q-10 172 -8 174q-2 54 17 117q18 64 90 66q33 0 45 -7q8 -8 8 -26q-2 -19 -16 -31q-17 -16 -19 -57q0 -45 31 -66q29 -22 65 -22q50 0 76 32q25 29 25 64q2 41 -37 98q-41 58 -156 60q-321 -9 -356 -402h-203v-61z" />
<glyph unicode="&#x2c6;" horiz-adv-x="682" d="M68 905h96l178 166v0l176 -166h96l-196 256h-154z" />
<glyph unicode="&#x2c7;" horiz-adv-x="682" d="M264 905h154l196 256h-96l-176 -166v0l-178 166h-96z" />
<glyph unicode="&#x2d8;" horiz-adv-x="682" d="M90 1100q6 -113 78 -154q35 -20 80 -31q43 -10 92 -10q248 -4 252 195h-55q-3 -15 -11 -31q-8 -14 -28 -31q-19 -14 -56 -24q-39 -11 -102 -11q-72 -2 -121 13q-51 16 -74 84h-55z" />
<glyph unicode="&#x2d9;" horiz-adv-x="682" d="M252 1032q2 -84 90 -88q39 0 63 27q25 24 25 61q0 39 -25 64q-24 26 -63 26q-88 -4 -90 -90v0z" />
<glyph unicode="&#x2da;" horiz-adv-x="682" d="M172 1053q0 -70 51 -117q47 -51 119 -51q74 0 121 51q45 47 47 117q-2 73 -47 120q-47 45 -121 48q-72 -3 -119 -48q-51 -47 -51 -120v0zM233 1053q0 45 33 75q33 29 76 31q45 -2 76 -31q28 -30 30 -75q-2 -45 -30 -74q-31 -33 -76 -33q-43 0 -76 33q-33 29 -33 74v0z " />
<glyph unicode="&#x2db;" horiz-adv-x="682" d="M446 0q-141 -35 -233 -102q-96 -70 -98 -154q2 -72 65 -109q60 -36 131 -36q113 2 215 55l-16 57q-21 -12 -70 -32q-51 -23 -110 -25q-39 2 -58 31q-22 26 -22 55q-2 61 57 123q60 61 215 133v4h-76z" />
<glyph unicode="&#x2dc;" horiz-adv-x="682" d="M137 934q4 20 25 45q20 22 69 24q31 -2 103 -20q35 -6 63 -14q27 -9 39 -9q10 0 37 5q27 4 57 18q33 14 58 51q22 37 30 96h-73q-17 -32 -33 -49q-18 -16 -66 -16q-36 0 -98 22q-59 19 -108 21q-64 -2 -115 -49t-62 -125h74z" />
<glyph unicode="&#x2013;" horiz-adv-x="1024" d="M0 330h1024v151h-1024v-151z" />
<glyph unicode="&#x2014;" horiz-adv-x="2048" d="M2048 481h-2048v-151h2048v151z" />
<glyph unicode="&#x2018;" horiz-adv-x="627" d="M512 969v0q-137 -33 -248 -123q-53 -45 -84 -107q-35 -63 -35 -143q0 -86 47 -148q44 -63 121 -63q70 0 115 49q45 45 45 111q0 78 -45 119q-45 40 -113 40q-20 0 -18 35q0 31 27 62q24 28 59 49q78 45 129 61v58z" />
<glyph unicode="&#x2019;" horiz-adv-x="627" d="M115 385v0q139 37 250 127q112 90 116 246q0 88 -43 149q-43 60 -125 62q-65 0 -110 -45q-49 -45 -49 -115q0 -74 47 -115q45 -45 110 -45q21 0 19 -35q0 -30 -23 -57q-26 -27 -61 -49q-35 -21 -70 -37q-37 -18 -61 -29v-57z" />
<glyph unicode="&#x201a;" horiz-adv-x="627" d="M115 -289v0q139 37 250 127q112 90 116 246q0 88 -43 149q-43 60 -125 62q-65 0 -110 -45q-49 -45 -49 -115q0 -74 47 -115q45 -43 110 -45q21 0 19 -34q0 -31 -23 -58q-26 -26 -61 -49q-35 -20 -70 -37q-37 -18 -61 -28v-58z" />
<glyph unicode="&#x201c;" horiz-adv-x="1024" d="M270 385q70 0 115 49q45 45 45 111q0 78 -45 119q-45 40 -113 40q-20 0 -18 35q0 31 27 62q24 28 59 49q78 45 129 61v58v0q-137 -33 -248 -123q-53 -45 -84 -107q-35 -63 -35 -143q0 -86 47 -148q43 -63 121 -63v0zM756 385q69 0 114 49q45 45 45 111q0 78 -45 119 q-45 40 -112 40q-21 0 -19 35q0 31 27 62q24 28 59 49q78 45 129 61v58v0q-137 -33 -247 -123q-54 -45 -84 -107q-35 -63 -35 -143q0 -86 47 -148q43 -63 121 -63v0z" />
<glyph unicode="&#x201d;" horiz-adv-x="1024" d="M754 969q-66 0 -111 -45q-49 -45 -49 -115q0 -74 47 -115q45 -45 111 -45q20 0 18 -35q0 -30 -23 -57q-26 -27 -61 -49q-35 -21 -70 -37q-36 -18 -61 -29v-57v0q139 37 250 127q112 90 117 246q0 88 -43 149q-43 60 -125 62v0zM268 969q-65 0 -110 -45q-49 -45 -49 -115 q0 -74 47 -115q45 -45 110 -45q21 0 19 -35q0 -30 -23 -57q-26 -27 -61 -49q-35 -21 -70 -37q-37 -18 -61 -29v-57v0q139 37 249 127q113 90 117 246q0 88 -43 149q-43 60 -125 62v0z" />
<glyph unicode="&#x201e;" horiz-adv-x="1024" d="M754 295q-66 0 -111 -45q-49 -45 -49 -115q0 -74 47 -115q45 -43 111 -45q20 0 18 -34q0 -31 -23 -58q-26 -26 -61 -49q-35 -20 -70 -37q-36 -18 -61 -28v-58v0q139 37 250 127q112 90 117 246q0 88 -43 149q-43 60 -125 62v0zM268 295q-65 0 -110 -45q-49 -45 -49 -115 q0 -74 47 -115q45 -43 110 -45q21 0 19 -34q0 -31 -23 -58q-26 -26 -61 -49q-35 -20 -70 -37q-37 -18 -61 -28v-58v0q139 37 249 127q113 90 117 246q0 88 -43 149q-43 60 -125 62v0z" />
<glyph unicode="&#x2020;" horiz-adv-x="1024" d="M549 -289q6 254 18 434q13 181 62 267q-47 39 -62 69q-16 29 -18 78q55 0 94 -10q37 -8 64 -25q30 -12 57 -22q26 -13 55 -13q82 0 84 91q-2 90 -84 92q-33 0 -57 -6q-25 -11 -51 -23q-25 -8 -62 -18q-39 -11 -100 -11q0 78 10 123q10 41 18 62q13 22 21 43q6 18 6 47 q0 26 -10 45q-8 16 -25 24q-32 11 -57 11q-21 0 -55 -11q-35 -16 -37 -69q0 -29 10 -47q10 -21 18 -43q13 -21 21 -62q6 -45 6 -123q-57 0 -94 11q-39 6 -66 18q-26 12 -49 23q-26 6 -61 6q-82 -2 -84 -92q2 -91 84 -91q31 0 57 13q29 10 55 22q56 33 158 35q0 -49 -14 -78 q-17 -30 -66 -69q51 -86 64 -267q12 -180 16 -434h74z" />
<glyph unicode="&#x2021;" horiz-adv-x="1024" d="M121 600q0 -94 84 -96q26 0 47 10q20 10 45 23q27 12 68 22q40 10 110 10q0 -84 -8 -125q-12 -43 -64 -104q52 -59 64 -100q8 -43 8 -127q-70 0 -110 10q-41 10 -68 22q-25 13 -45 23q-21 10 -47 10q-84 -2 -84 -98q0 -45 33 -64q30 -20 53 -20q35 2 86 31q53 26 182 34 q0 -75 -6 -114q-8 -41 -21 -64q-8 -20 -18 -39q-10 -20 -10 -53q0 -26 12 -41q10 -14 25 -24q30 -15 55 -15t59 15q31 12 33 65q0 33 -6 53q-8 19 -21 39q-8 21 -18 62q-10 39 -10 112q67 0 112 -8q43 -10 70 -22q29 -11 49 -21q19 -10 37 -10q27 0 57 20q27 19 29 64 q0 96 -84 98q-45 -2 -90 -33q-22 -12 -65 -22q-46 -10 -115 -10q-2 84 12 127q12 41 59 100q-47 61 -59 104q-14 41 -12 125q69 0 115 -10q43 -10 65 -22q27 -13 47 -23q19 -10 43 -10q84 2 84 96q-2 49 -29 70q-30 16 -57 16q-35 -2 -84 -29q-26 -12 -69 -22 q-46 -10 -115 -10q0 75 10 116q10 39 18 60q13 20 21 41q6 18 6 47q0 26 -8 45q-8 16 -25 24q-34 11 -59 11t-55 -11q-35 -16 -37 -69q0 -29 10 -47q10 -21 18 -41q13 -21 21 -60q6 -41 6 -116q-65 0 -108 10q-45 10 -72 22q-27 13 -45 23q-21 6 -43 6q-23 0 -53 -16 q-33 -21 -33 -70v0z" />
<glyph unicode="&#x2022;" horiz-adv-x="1024" d="M276 473q0 -100 70 -168q66 -69 166 -69t168 69q65 68 67 168q-2 100 -67 168q-68 66 -168 68q-100 -2 -166 -68q-70 -68 -70 -168v0z" />
<glyph unicode="&#x2026;" horiz-adv-x="2048" d="M182 135q0 -65 49 -110q45 -48 111 -50q70 2 115 50q45 45 45 110q0 70 -45 115t-115 45q-66 0 -111 -45q-49 -45 -49 -115v0zM864 135q0 -65 49 -110q45 -48 111 -50q70 2 115 50q45 45 45 110q0 70 -45 115t-115 45q-66 0 -111 -45q-49 -45 -49 -115v0zM1546 135 q0 -65 49 -110q45 -48 111 -50q69 2 115 50q45 45 45 110q0 70 -45 115q-46 45 -115 45q-66 0 -111 -45q-49 -45 -49 -115v0z" />
<glyph unicode="&#x2030;" horiz-adv-x="2048" d="M1061 0q-60 0 -72 66q-16 61 -16 157q0 101 16 160q12 59 72 61q65 -2 78 -61q10 -59 10 -160q0 -96 -10 -157q-13 -66 -78 -66v0zM367 -25h90l610 994h-90zM371 500q-60 0 -72 65q-16 62 -16 158q0 100 16 160q12 59 72 61q65 -2 77 -61q11 -60 11 -160q0 -96 -11 -158 q-12 -65 -77 -65v0zM1061 -25q108 2 178 72q70 68 72 176q-2 109 -72 178q-70 66 -178 68q-107 -2 -176 -68q-72 -69 -74 -178q2 -108 74 -176q69 -70 176 -72v0zM371 475q108 0 178 72q69 67 71 176q-2 108 -71 178q-70 66 -178 68q-107 -2 -176 -68q-72 -70 -74 -178 q2 -109 74 -176q69 -72 176 -72v0zM1677 -25q109 2 178 72q70 68 72 176q-2 109 -72 178q-69 66 -178 68q-106 -2 -176 -68q-72 -69 -74 -178q2 -108 74 -176q70 -70 176 -72v0zM1677 0q-59 0 -71 66q-17 61 -17 157q0 101 17 160q12 59 71 61q66 -2 78 -61q10 -59 10 -160 q0 -96 -10 -157q-12 -66 -78 -66v0z" />
<glyph unicode="&#x2039;" horiz-adv-x="797" d="M184 330l267 -320h161l-266 320l266 319h-161z" />
<glyph unicode="&#x203a;" horiz-adv-x="797" d="M612 330l-266 319h-162l267 -319l-267 -320h162z" />
<glyph unicode="&#x2122;" horiz-adv-x="1352" d="M229 524q0 -57 -59 -55v-33h221v33q-61 -2 -59 55v387h59q72 -4 76 -80h33v113h-439v-113h33q4 76 76 80h59v-387zM1067 526q2 -59 -57 -57v-33h219v33q-60 -2 -58 57v324q0 31 15 47q12 14 51 14v33h-145l-193 -362v0l-174 362h-166v-33q35 -2 57 -22q21 -25 21 -39 v-324q0 -59 -57 -57v-33h163v33q-63 -2 -61 57v281h4h-2l182 -371h21l176 359h4v-269z" />
<glyph unicode="&#x2212;" horiz-adv-x="979" d="M96 326h787v135h-787v-135z" />
<glyph unicode="&#x2215;" horiz-adv-x="342" d="M682 969h-152l-870 -994h152z" />
<glyph unicode="&#x2219;" horiz-adv-x="627" d="M154 346q0 -65 49 -110q45 -50 110 -50q70 0 115 50q45 45 45 110q0 70 -45 115t-115 45q-65 0 -110 -45q-49 -45 -49 -115v0z" />
<glyph unicode="&#x25fc;" horiz-adv-x="785" d="M0 785h785v-785h-785v785z" />
<glyph unicode="&#xf001;" horiz-adv-x="2048" d="M291 106l-68 -73h-147v-33h663v33h-141l-80 73v287h182l107 -188h33v403h-33l-107 -182h-182v248l98 80h330l164 -293h33v325h-1067v-32h147l68 -74v-574zM1327 0h645v33h-123l-80 73v574l80 74h123v32h-645v-32h147l68 -74v-574l-68 -73h-147v-33z" />
<glyph unicode="&#xf002;" horiz-adv-x="2502" d="M291 106l-68 -73h-147v-33h663v33h-141l-80 73v287h182l107 -188h33v403h-33l-107 -182h-182v248l98 80h330l164 -293h33v325h-1067v-32h147l68 -74v-574zM1507 106l-67 -73h-138v-33h1106v397h-32l-234 -364h-328l-79 73v574l79 74h154v32h-666v-32h138l67 -74v-574z " />
</font>
</defs>
</svg>
